<?xml version="1.0" encoding="UTF-8" standalone="no"?><!DOCTYPE svg PUBLIC "-//W3C//DTD SVG 1.1//EN" "http://www.w3.org/Graphics/SVG/1.1/DTD/svg11.dtd"><svg width="100%" height="100%" viewBox="0 0 227 58" version="1.1" xmlns="http://www.w3.org/2000/svg" xmlns:xlink="http://www.w3.org/1999/xlink" xml:space="preserve" style="fill-rule:evenodd;clip-rule:evenodd;stroke-linejoin:round;stroke-miterlimit:1.41421;"><g><g transform="matrix(2.25977,0,0,2.25977,-9651.91,-96.1578)"><path d="M4315.55,62.148l0,-11.273l7.698,8.053l0,-7.335l1.592,0l0,11.198l-7.697,-8.033l0,7.39l-1.593,0Z" style="fill:none;"/><path d="M4333.1,59.584l-4.519,0l-1.176,2.564l-1.715,0l5.222,-11.218l5.038,11.218l-1.743,0l-1.107,-2.564Zm-0.65,-1.497l-1.565,-3.588l-1.641,3.588l3.206,0Z" style="fill:none;"/><path d="M4341.98,53.09l-3.677,0l0,2.536l3.547,0l0,1.498l-3.547,0l0,5.024l-1.593,0l0,-10.555l5.27,0l0,1.497Z" style="fill:none;"/><path d="M4349.09,53.09l-4.231,0l0,2.536l4.108,0l0,1.498l-4.108,0l0,3.527l4.231,0l0,1.497l-5.824,0l0,-10.555l5.824,0l0,1.497Z" style="fill:none;"/><path d="M4350.25,62.148l2.222,-11.348l3.623,8.203l3.752,-8.203l1.997,11.348l-1.634,0l-1.019,-6.371l-3.124,6.856l-3.035,-6.863l-1.135,6.378l-1.647,0Z" style="fill:none;"/><path d="M4369.48,53.166l-1.292,0.765c-0.242,-0.419 -0.472,-0.693 -0.691,-0.82c-0.228,-0.146 -0.522,-0.219 -0.882,-0.219c-0.442,0 -0.808,0.125 -1.1,0.376c-0.292,0.246 -0.438,0.556 -0.438,0.93c0,0.515 0.383,0.929 1.149,1.244l1.053,0.431c0.856,0.346 1.483,0.769 1.879,1.268c0.397,0.499 0.595,1.11 0.595,1.835c0,0.971 -0.323,1.773 -0.971,2.406c-0.651,0.638 -1.46,0.957 -2.426,0.957c-0.916,0 -1.673,-0.271 -2.27,-0.813c-0.588,-0.542 -0.955,-1.306 -1.1,-2.29l1.613,-0.356c0.073,0.62 0.2,1.049 0.383,1.286c0.328,0.455 0.806,0.683 1.435,0.683c0.497,0 0.909,-0.166 1.238,-0.499c0.328,-0.333 0.492,-0.754 0.492,-1.265c0,-0.205 -0.029,-0.393 -0.086,-0.564c-0.057,-0.17 -0.146,-0.328 -0.266,-0.471c-0.121,-0.144 -0.277,-0.278 -0.469,-0.404c-0.191,-0.125 -0.419,-0.244 -0.683,-0.358l-1.019,-0.424c-1.444,-0.611 -2.167,-1.504 -2.167,-2.68c0,-0.793 0.303,-1.456 0.909,-1.989c0.607,-0.538 1.361,-0.807 2.263,-0.807c1.217,0 2.167,0.593 2.851,1.778Z" style="fill:none;"/><path d="M4315.55,62.148l0,-11.273l7.698,8.053l0,-7.335l1.592,0l0,11.198l-7.697,-8.033l0,7.39l-1.593,0Z" style="fill:#e02115;fill-rule:nonzero;stroke:#e02115;stroke-width:0.09px;"/><path d="M4333.1,59.584l-4.519,0l-1.176,2.564l-1.715,0l5.222,-11.218l5.038,11.218l-1.743,0l-1.107,-2.564Zm-0.65,-1.497l-1.565,-3.588l-1.641,3.588l3.206,0Z" style="fill:#e02115;fill-rule:nonzero;stroke:#e02115;stroke-width:0.09px;"/><path d="M4341.98,53.09l-3.677,0l0,2.536l3.547,0l0,1.498l-3.547,0l0,5.024l-1.593,0l0,-10.555l5.27,0l0,1.497Z" style="fill:#e02115;fill-rule:nonzero;stroke:#e02115;stroke-width:0.09px;"/><path d="M4349.09,53.09l-4.231,0l0,2.536l4.108,0l0,1.498l-4.108,0l0,3.527l4.231,0l0,1.497l-5.824,0l0,-10.555l5.824,0l0,1.497Z" style="fill:#e02115;fill-rule:nonzero;stroke:#e02115;stroke-width:0.09px;"/><path d="M4350.25,62.148l2.222,-11.348l3.623,8.203l3.752,-8.203l1.997,11.348l-1.634,0l-1.019,-6.371l-3.124,6.856l-3.035,-6.863l-1.135,6.378l-1.647,0Z" style="fill:#e02115;fill-rule:nonzero;stroke:#e02115;stroke-width:0.09px;"/><path d="M4369.48,53.166l-1.292,0.765c-0.242,-0.419 -0.472,-0.693 -0.691,-0.82c-0.228,-0.146 -0.522,-0.219 -0.882,-0.219c-0.442,0 -0.808,0.125 -1.1,0.376c-0.292,0.246 -0.438,0.556 -0.438,0.93c0,0.515 0.383,0.929 1.149,1.244l1.053,0.431c0.856,0.346 1.483,0.769 1.879,1.268c0.397,0.499 0.595,1.11 0.595,1.835c0,0.971 -0.323,1.773 -0.971,2.406c-0.651,0.638 -1.46,0.957 -2.426,0.957c-0.916,0 -1.673,-0.271 -2.27,-0.813c-0.588,-0.542 -0.955,-1.306 -1.1,-2.29l1.613,-0.356c0.073,0.62 0.2,1.049 0.383,1.286c0.328,0.455 0.806,0.683 1.435,0.683c0.497,0 0.909,-0.166 1.238,-0.499c0.328,-0.333 0.492,-0.754 0.492,-1.265c0,-0.205 -0.029,-0.393 -0.086,-0.564c-0.057,-0.17 -0.146,-0.328 -0.266,-0.471c-0.121,-0.144 -0.277,-0.278 -0.469,-0.404c-0.191,-0.125 -0.419,-0.244 -0.683,-0.358l-1.019,-0.424c-1.444,-0.611 -2.167,-1.504 -2.167,-2.68c0,-0.793 0.303,-1.456 0.909,-1.989c0.607,-0.538 1.361,-0.807 2.263,-0.807c1.217,0 2.167,0.593 2.851,1.778Z" style="fill:#e02115;fill-rule:nonzero;stroke:#e02115;stroke-width:0.09px;"/></g><g><path d="M42.535,10.474l-5,-8l10,0l-5,8Z" style="fill:#262626;"/><path d="M47.568,2.175l0.033,0.006l0.033,0.009l0.031,0.013l0.029,0.016l0.028,0.02l0.025,0.022l0.022,0.025l0.02,0.028l0.016,0.029l0.013,0.031l0.009,0.032l0.006,0.034l0.002,0.033l-0.002,0.034l-0.006,0.033l-0.009,0.032l-0.013,0.031l-0.016,0.03l-5,8l-0.019,0.027l-0.023,0.025l-0.025,0.023l-0.027,0.019l-0.03,0.017l-0.031,0.013l-0.032,0.009l-0.034,0.006l-0.033,0.002l-0.034,-0.002l-0.033,-0.006l-0.033,-0.009l-0.031,-0.013l-0.029,-0.017l-0.028,-0.019l-0.025,-0.023l-0.022,-0.025l-0.02,-0.027l-5,-8l-0.016,-0.03l-0.013,-0.031l-0.009,-0.032l-0.005,-0.033l-0.002,-0.034l0.002,-0.033l0.005,-0.034l0.01,-0.032l0.013,-0.031l0.016,-0.029l0.019,-0.028l0.023,-0.025l0.025,-0.022l0.027,-0.02l0.03,-0.016l0.031,-0.013l0.032,-0.009l0.033,-0.006l0.034,-0.001l10,0l0.033,0.001Zm-10.033,0.299l5,8l5,-8l-10,0Z"/><path d="M49.36,21.732l-5,-8l10,0l-5,8Z" style="fill:#262626;"/><path d="M54.393,13.434l0.033,0.006l0.033,0.009l0.031,0.013l0.029,0.016l0.027,0.02l0.026,0.022l0.022,0.025l0.019,0.027l0.017,0.03l0.013,0.031l0.009,0.032l0.006,0.033l0.002,0.034l-0.002,0.033l-0.006,0.033l-0.009,0.033l-0.013,0.031l-0.016,0.029l-5,8l-0.019,0.028l-0.023,0.025l-0.025,0.022l-0.027,0.02l-0.03,0.016l-0.031,0.013l-0.033,0.01l-0.033,0.005l-0.033,0.002l-0.034,-0.002l-0.033,-0.005l-0.033,-0.01l-0.031,-0.013l-0.029,-0.016l-0.028,-0.02l-0.025,-0.022l-0.022,-0.025l-0.02,-0.028l-5,-8l-0.016,-0.029l-0.013,-0.031l-0.009,-0.033l-0.006,-0.033l-0.001,-0.033l0.002,-0.034l0.005,-0.033l0.01,-0.032l0.012,-0.031l0.017,-0.03l0.019,-0.027l0.023,-0.025l0.025,-0.022l0.027,-0.02l0.03,-0.016l0.031,-0.013l0.032,-0.009l0.033,-0.006l0.034,-0.002l10,0l0.033,0.002Zm-10.033,0.298l5,8l5,-8l-10,0Z"/><path d="M56.51,32.606l-5,-8l10,0l-5,8Z" style="fill:#262626;"/><path d="M61.543,24.308l0.033,0.006l0.033,0.009l0.031,0.013l0.029,0.016l0.028,0.02l0.025,0.022l0.022,0.025l0.02,0.027l0.016,0.03l0.013,0.031l0.009,0.032l0.006,0.033l0.002,0.034l-0.002,0.033l-0.006,0.034l-0.009,0.032l-0.013,0.031l-0.016,0.029l-5,8l-0.019,0.028l-0.023,0.025l-0.025,0.023l-0.027,0.019l-0.03,0.017l-0.031,0.012l-0.032,0.01l-0.034,0.005l-0.033,0.002l-0.034,-0.002l-0.033,-0.005l-0.033,-0.01l-0.031,-0.012l-0.029,-0.017l-0.028,-0.019l-0.025,-0.023l-0.022,-0.025l-0.02,-0.028l-5,-8l-0.016,-0.029l-0.013,-0.031l-0.009,-0.032l-0.005,-0.034l-0.002,-0.033l0.002,-0.034l0.005,-0.033l0.01,-0.032l0.013,-0.031l0.016,-0.03l0.019,-0.027l0.023,-0.025l0.025,-0.022l0.027,-0.02l0.03,-0.016l0.031,-0.013l0.032,-0.009l0.033,-0.006l0.034,-0.002l10,0l0.033,0.002Zm-10.033,0.298l5,8l5,-8l-10,0Z"/><path d="M63.448,43.396l-5,-8l10,0l-5,8Z" style="fill:#262626;"/><path d="M68.481,35.098l0.033,0.006l0.033,0.009l0.031,0.013l0.029,0.016l0.027,0.019l0.026,0.023l0.022,0.025l0.019,0.027l0.017,0.03l0.013,0.031l0.009,0.032l0.006,0.033l0.002,0.034l-0.002,0.033l-0.006,0.033l-0.009,0.033l-0.013,0.031l-0.016,0.029l-5,8l-0.019,0.028l-0.023,0.025l-0.025,0.022l-0.027,0.02l-0.03,0.016l-0.031,0.013l-0.033,0.01l-0.033,0.005l-0.033,0.002l-0.034,-0.002l-0.033,-0.005l-0.033,-0.01l-0.031,-0.013l-0.029,-0.016l-0.028,-0.02l-0.025,-0.022l-0.022,-0.025l-0.02,-0.028l-5,-8l-0.016,-0.029l-0.013,-0.031l-0.009,-0.033l-0.006,-0.033l-0.001,-0.033l0.002,-0.034l0.005,-0.033l0.01,-0.032l0.012,-0.031l0.017,-0.03l0.019,-0.027l0.023,-0.025l0.025,-0.023l0.027,-0.019l0.03,-0.016l0.031,-0.013l0.032,-0.009l0.033,-0.006l0.034,-0.002l10,0l0.033,0.002Zm-10.033,0.298l5,8l5,-8l-10,0Z"/><path d="M70.422,54.552l-5,-8l10,0l-5,8Z" style="fill:#262626;"/><path d="M75.455,46.254l0.033,0.006l0.033,0.009l0.031,0.013l0.029,0.016l0.028,0.019l0.025,0.023l0.022,0.025l0.02,0.027l0.016,0.03l0.013,0.031l0.009,0.032l0.006,0.033l0.002,0.034l-0.002,0.033l-0.006,0.033l-0.009,0.033l-0.013,0.031l-0.016,0.029l-5,8l-0.019,0.028l-0.023,0.025l-0.025,0.022l-0.027,0.02l-0.03,0.016l-0.031,0.013l-0.032,0.01l-0.034,0.005l-0.033,0.002l-0.034,-0.002l-0.033,-0.005l-0.033,-0.01l-0.031,-0.013l-0.029,-0.016l-0.028,-0.02l-0.025,-0.022l-0.022,-0.025l-0.02,-0.028l-5,-8l-0.016,-0.029l-0.013,-0.031l-0.009,-0.033l-0.005,-0.033l-0.002,-0.033l0.002,-0.034l0.005,-0.033l0.01,-0.032l0.013,-0.031l0.016,-0.03l0.019,-0.027l0.023,-0.025l0.025,-0.023l0.027,-0.019l0.03,-0.016l0.031,-0.013l0.032,-0.009l0.033,-0.006l0.034,-0.002l10,0l0.033,0.002Zm-10.033,0.298l5,8l5,-8l-10,0Z"/><path d="M56.137,10.474l-5,-8l10,0l-5,8Z" style="fill:#262626;"/><path d="M61.171,2.175l0.033,0.006l0.032,0.009l0.031,0.013l0.029,0.016l0.028,0.02l0.025,0.022l0.022,0.025l0.02,0.028l0.016,0.029l0.013,0.031l0.009,0.032l0.006,0.034l0.002,0.033l-0.002,0.034l-0.005,0.033l-0.01,0.032l-0.012,0.031l-0.017,0.03l-5,8l-0.019,0.027l-0.022,0.025l-0.026,0.023l-0.027,0.019l-0.03,0.017l-0.031,0.013l-0.032,0.009l-0.033,0.006l-0.034,0.002l-0.034,-0.002l-0.033,-0.006l-0.032,-0.009l-0.031,-0.013l-0.03,-0.017l-0.027,-0.019l-0.025,-0.023l-0.023,-0.025l-0.019,-0.027l-5,-8l-0.017,-0.03l-0.012,-0.031l-0.01,-0.032l-0.005,-0.033l-0.002,-0.034l0.002,-0.033l0.006,-0.034l0.009,-0.032l0.013,-0.031l0.016,-0.029l0.02,-0.028l0.022,-0.025l0.025,-0.022l0.028,-0.02l0.029,-0.016l0.031,-0.013l0.032,-0.009l0.033,-0.006l0.034,-0.001l10,0l0.034,0.001Zm-10.034,0.299l5,8l5,-8l-10,0Z"/><path d="M62.962,21.732l-5,-8l10,0l-5,8Z" style="fill:#262626;"/><path d="M67.995,13.434l0.034,0.006l0.032,0.009l0.031,0.013l0.029,0.016l0.028,0.02l0.025,0.022l0.022,0.025l0.02,0.027l0.016,0.03l0.013,0.031l0.009,0.032l0.006,0.033l0.002,0.034l-0.002,0.033l-0.006,0.033l-0.009,0.033l-0.013,0.031l-0.016,0.029l-5,8l-0.019,0.028l-0.023,0.025l-0.025,0.022l-0.027,0.02l-0.03,0.016l-0.031,0.013l-0.032,0.01l-0.033,0.005l-0.034,0.002l-0.034,-0.002l-0.033,-0.005l-0.032,-0.01l-0.032,-0.013l-0.029,-0.016l-0.028,-0.02l-0.025,-0.022l-0.022,-0.025l-0.02,-0.028l-5,-8l-0.016,-0.029l-0.013,-0.031l-0.009,-0.033l-0.005,-0.033l-0.002,-0.033l0.002,-0.034l0.005,-0.033l0.01,-0.032l0.013,-0.031l0.016,-0.03l0.02,-0.027l0.022,-0.025l0.025,-0.022l0.027,-0.02l0.03,-0.016l0.031,-0.013l0.032,-0.009l0.033,-0.006l0.034,-0.002l10,0l0.033,0.002Zm-10.033,0.298l5,8l5,-8l-10,0Z"/><path d="M70.112,32.606l-5,-8l10,0l-5,8Z" style="fill:#262626;"/><path d="M75.146,24.308l0.033,0.006l0.032,0.009l0.031,0.013l0.029,0.016l0.028,0.02l0.025,0.022l0.022,0.025l0.02,0.027l0.016,0.03l0.013,0.031l0.009,0.032l0.006,0.033l0.002,0.034l-0.002,0.033l-0.005,0.034l-0.01,0.032l-0.012,0.031l-0.017,0.029l-5,8l-0.019,0.028l-0.022,0.025l-0.026,0.023l-0.027,0.019l-0.03,0.017l-0.031,0.012l-0.032,0.01l-0.033,0.005l-0.034,0.002l-0.034,-0.002l-0.033,-0.005l-0.032,-0.01l-0.031,-0.012l-0.03,-0.017l-0.027,-0.019l-0.025,-0.023l-0.023,-0.025l-0.019,-0.028l-5,-8l-0.017,-0.029l-0.012,-0.031l-0.01,-0.032l-0.005,-0.034l-0.002,-0.033l0.002,-0.034l0.006,-0.033l0.009,-0.032l0.013,-0.031l0.016,-0.03l0.02,-0.027l0.022,-0.025l0.025,-0.022l0.028,-0.02l0.029,-0.016l0.031,-0.013l0.032,-0.009l0.033,-0.006l0.034,-0.002l10,0l0.034,0.002Zm-10.034,0.298l5,8l5,-8l-10,0Z"/><path d="M77.05,43.396l-5,-8l10,0l-5,8Z" style="fill:#262626;"/><path d="M82.083,35.098l0.034,0.006l0.032,0.009l0.031,0.013l0.029,0.016l0.028,0.019l0.025,0.023l0.022,0.025l0.02,0.027l0.016,0.03l0.013,0.031l0.009,0.032l0.006,0.033l0.002,0.034l-0.002,0.033l-0.005,0.033l-0.01,0.033l-0.013,0.031l-0.016,0.029l-5,8l-0.019,0.028l-0.023,0.025l-0.025,0.022l-0.027,0.02l-0.03,0.016l-0.031,0.013l-0.032,0.01l-0.033,0.005l-0.034,0.002l-0.034,-0.002l-0.033,-0.005l-0.032,-0.01l-0.032,-0.013l-0.029,-0.016l-0.028,-0.02l-0.025,-0.022l-0.022,-0.025l-0.019,-0.028l-5,-8l-0.017,-0.029l-0.012,-0.031l-0.01,-0.033l-0.005,-0.033l-0.002,-0.033l0.002,-0.034l0.006,-0.033l0.009,-0.032l0.013,-0.031l0.016,-0.03l0.02,-0.027l0.022,-0.025l0.025,-0.023l0.027,-0.019l0.03,-0.016l0.031,-0.013l0.032,-0.009l0.033,-0.006l0.034,-0.002l10,0l0.033,0.002Zm-10.033,0.298l5,8l5,-8l-10,0Z"/><path d="M69.739,10.474l-5,-8l10,0l-5,8Z" style="fill:#262626;"/><path d="M74.773,2.175l0.033,0.006l0.032,0.009l0.031,0.013l0.03,0.016l0.027,0.02l0.025,0.022l0.023,0.025l0.019,0.028l0.017,0.029l0.012,0.031l0.01,0.032l0.005,0.034l0.002,0.033l-0.001,0.034l-0.006,0.033l-0.009,0.032l-0.013,0.031l-0.016,0.03l-5,8l-0.02,0.027l-0.022,0.025l-0.025,0.023l-0.028,0.019l-0.029,0.017l-0.031,0.013l-0.033,0.009l-0.033,0.006l-0.034,0.002l-0.033,-0.002l-0.034,-0.006l-0.032,-0.009l-0.031,-0.013l-0.03,-0.017l-0.027,-0.019l-0.025,-0.023l-0.023,-0.025l-0.019,-0.027l-5,-8l-0.016,-0.03l-0.013,-0.031l-0.009,-0.032l-0.006,-0.033l-0.002,-0.034l0.002,-0.033l0.006,-0.034l0.009,-0.032l0.013,-0.031l0.017,-0.029l0.019,-0.028l0.022,-0.025l0.026,-0.022l0.027,-0.02l0.029,-0.016l0.031,-0.013l0.033,-0.009l0.033,-0.006l0.033,-0.001l10,0l0.034,0.001Zm-10.034,0.299l5,8l5,-8l-10,0Z"/><path d="M76.564,21.732l-5,-8l10,0l-5,8Z" style="fill:#262626;"/><path d="M81.598,13.434l0.033,0.006l0.032,0.009l0.031,0.013l0.03,0.016l0.027,0.02l0.025,0.022l0.023,0.025l0.019,0.027l0.016,0.03l0.013,0.031l0.01,0.032l0.005,0.033l0.002,0.034l-0.002,0.033l-0.005,0.033l-0.009,0.033l-0.013,0.031l-0.016,0.029l-5,8l-0.02,0.028l-0.022,0.025l-0.025,0.022l-0.028,0.02l-0.029,0.016l-0.031,0.013l-0.033,0.01l-0.033,0.005l-0.034,0.002l-0.033,-0.002l-0.034,-0.005l-0.032,-0.01l-0.031,-0.013l-0.03,-0.016l-0.027,-0.02l-0.025,-0.022l-0.023,-0.025l-0.019,-0.028l-5,-8l-0.016,-0.029l-0.013,-0.031l-0.009,-0.033l-0.006,-0.033l-0.002,-0.033l0.002,-0.034l0.006,-0.033l0.009,-0.032l0.013,-0.031l0.016,-0.03l0.02,-0.027l0.022,-0.025l0.025,-0.022l0.028,-0.02l0.029,-0.016l0.031,-0.013l0.033,-0.009l0.033,-0.006l0.033,-0.002l10,0l0.034,0.002Zm-10.034,0.298l5,8l5,-8l-10,0Z"/><path d="M83.714,32.606l-5,-8l10,0l-5,8Z" style="fill:#262626;"/><path d="M88.748,24.308l0.033,0.006l0.032,0.009l0.031,0.013l0.03,0.016l0.027,0.02l0.025,0.022l0.023,0.025l0.019,0.027l0.017,0.03l0.012,0.031l0.01,0.032l0.005,0.033l0.002,0.034l-0.001,0.033l-0.006,0.034l-0.009,0.032l-0.013,0.031l-0.016,0.029l-5,8l-0.02,0.028l-0.022,0.025l-0.025,0.023l-0.028,0.019l-0.029,0.017l-0.031,0.012l-0.033,0.01l-0.033,0.005l-0.034,0.002l-0.033,-0.002l-0.034,-0.005l-0.032,-0.01l-0.031,-0.012l-0.03,-0.017l-0.027,-0.019l-0.025,-0.023l-0.023,-0.025l-0.019,-0.028l-5,-8l-0.016,-0.029l-0.013,-0.031l-0.009,-0.032l-0.006,-0.034l-0.002,-0.033l0.002,-0.034l0.006,-0.033l0.009,-0.032l0.013,-0.031l0.017,-0.03l0.019,-0.027l0.022,-0.025l0.026,-0.022l0.027,-0.02l0.029,-0.016l0.031,-0.013l0.033,-0.009l0.033,-0.006l0.033,-0.002l10,0l0.034,0.002Zm-10.034,0.298l5,8l5,-8l-10,0Z"/><path d="M83.342,10.474l-5,-8l10,0l-5,8Z" style="fill:#262626;"/><path d="M88.375,2.175l0.033,0.006l0.033,0.009l0.031,0.013l0.029,0.016l0.028,0.02l0.025,0.022l0.022,0.025l0.02,0.028l0.016,0.029l0.013,0.031l0.009,0.032l0.006,0.034l0.002,0.033l-0.002,0.034l-0.006,0.033l-0.009,0.032l-0.013,0.031l-0.016,0.03l-5,8l-0.019,0.027l-0.023,0.025l-0.025,0.023l-0.027,0.019l-0.03,0.017l-0.031,0.013l-0.032,0.009l-0.034,0.006l-0.033,0.002l-0.034,-0.002l-0.033,-0.006l-0.033,-0.009l-0.031,-0.013l-0.029,-0.017l-0.028,-0.019l-0.025,-0.023l-0.022,-0.025l-0.02,-0.027l-5,-8l-0.016,-0.03l-0.013,-0.031l-0.009,-0.032l-0.005,-0.033l-0.002,-0.034l0.002,-0.033l0.005,-0.034l0.01,-0.032l0.013,-0.031l0.016,-0.029l0.019,-0.028l0.023,-0.025l0.025,-0.022l0.027,-0.02l0.03,-0.016l0.031,-0.013l0.032,-0.009l0.033,-0.006l0.034,-0.001l10,0l0.033,0.001Zm-10.033,0.299l5,8l5,-8l-10,0Z"/><path d="M90.167,21.732l-5,-8l10,0l-5,8Z" style="fill:#262626;"/><path d="M95.2,13.434l0.033,0.006l0.033,0.009l0.031,0.013l0.029,0.016l0.027,0.02l0.025,0.022l0.023,0.025l0.019,0.027l0.017,0.03l0.013,0.031l0.009,0.032l0.006,0.033l0.002,0.034l-0.002,0.033l-0.006,0.033l-0.009,0.033l-0.013,0.031l-0.016,0.029l-5,8l-0.02,0.028l-0.022,0.025l-0.025,0.022l-0.028,0.02l-0.029,0.016l-0.031,0.013l-0.033,0.01l-0.033,0.005l-0.033,0.002l-0.034,-0.002l-0.033,-0.005l-0.033,-0.01l-0.031,-0.013l-0.029,-0.016l-0.028,-0.02l-0.025,-0.022l-0.022,-0.025l-0.02,-0.028l-5,-8l-0.016,-0.029l-0.013,-0.031l-0.009,-0.033l-0.006,-0.033l-0.001,-0.033l0.001,-0.034l0.006,-0.033l0.01,-0.032l0.012,-0.031l0.017,-0.03l0.019,-0.027l0.023,-0.025l0.025,-0.022l0.027,-0.02l0.03,-0.016l0.031,-0.013l0.032,-0.009l0.033,-0.006l0.034,-0.002l10,0l0.033,0.002Zm-10.033,0.298l5,8l5,-8l-10,0Z"/><path d="M96.944,10.474l-5,-8l10,0l-5,8Z" style="fill:#262626;"/><path d="M101.978,2.175l0.033,0.006l0.032,0.009l0.031,0.013l0.029,0.016l0.028,0.02l0.025,0.022l0.022,0.025l0.02,0.028l0.016,0.029l0.013,0.031l0.009,0.032l0.006,0.034l0.002,0.033l-0.002,0.034l-0.005,0.033l-0.01,0.032l-0.012,0.031l-0.017,0.03l-5,8l-0.019,0.027l-0.022,0.025l-0.026,0.023l-0.027,0.019l-0.03,0.017l-0.031,0.013l-0.032,0.009l-0.033,0.006l-0.034,0.002l-0.034,-0.002l-0.033,-0.006l-0.032,-0.009l-0.031,-0.013l-0.03,-0.017l-0.027,-0.019l-0.025,-0.023l-0.023,-0.025l-0.019,-0.027l-5,-8l-0.017,-0.03l-0.012,-0.031l-0.01,-0.032l-0.005,-0.033l-0.002,-0.034l0.002,-0.033l0.006,-0.034l0.009,-0.032l0.013,-0.031l0.016,-0.029l0.02,-0.028l0.022,-0.025l0.025,-0.022l0.028,-0.02l0.029,-0.016l0.031,-0.013l0.032,-0.009l0.033,-0.006l0.034,-0.001l10,0l0.034,0.001Zm-10.034,0.299l5,8l5,-8l-10,0Z"/><path d="M90.342,3.474l5,8l-10,0l5,-8Z" style="fill:#262626;"/><path d="M90.375,3.175l0.034,0.006l0.032,0.01l0.031,0.012l0.03,0.017l0.027,0.019l0.025,0.023l0.023,0.025l0.019,0.028l5,8l0.016,0.029l0.013,0.031l0.009,0.032l0.006,0.034l0.002,0.033l-0.002,0.034l-0.006,0.033l-0.009,0.032l-0.013,0.031l-0.016,0.029l-0.02,0.028l-0.022,0.025l-0.025,0.022l-0.028,0.02l-0.029,0.016l-0.031,0.013l-0.033,0.009l-0.033,0.006l-0.033,0.002l-10,0l-0.034,-0.002l-0.033,-0.006l-0.032,-0.009l-0.031,-0.013l-0.03,-0.016l-0.027,-0.02l-0.025,-0.022l-0.023,-0.025l-0.019,-0.028l-0.016,-0.029l-0.013,-0.031l-0.01,-0.032l-0.005,-0.033l-0.002,-0.034l0.002,-0.033l0.005,-0.034l0.009,-0.032l0.013,-0.031l0.016,-0.029l5,-8l0.02,-0.028l0.022,-0.025l0.025,-0.023l0.028,-0.019l0.029,-0.017l0.031,-0.012l0.033,-0.01l0.033,-0.006l0.034,-0.001l0.033,0.001Zm-5.033,8.299l10,0l-5,-8l-5,8Z"/><path d="M76.739,3.474l5,8l-10,0l5,-8Z" style="fill:#262626;"/><path d="M76.773,3.175l0.033,0.006l0.033,0.01l0.031,0.012l0.029,0.017l0.028,0.019l0.025,0.023l0.022,0.025l0.02,0.028l5,8l0.016,0.029l0.013,0.031l0.009,0.032l0.006,0.034l0.001,0.033l-0.002,0.034l-0.005,0.033l-0.01,0.032l-0.012,0.031l-0.017,0.029l-0.019,0.028l-0.023,0.025l-0.025,0.022l-0.027,0.02l-0.03,0.016l-0.031,0.013l-0.032,0.009l-0.033,0.006l-0.034,0.002l-10,0l-0.033,-0.002l-0.033,-0.006l-0.033,-0.009l-0.031,-0.013l-0.029,-0.016l-0.027,-0.02l-0.026,-0.022l-0.022,-0.025l-0.019,-0.028l-0.017,-0.029l-0.013,-0.031l-0.009,-0.032l-0.006,-0.033l-0.002,-0.034l0.002,-0.033l0.006,-0.034l0.009,-0.032l0.013,-0.031l0.016,-0.029l5,-8l0.019,-0.028l0.023,-0.025l0.025,-0.023l0.027,-0.019l0.03,-0.017l0.031,-0.012l0.032,-0.01l0.034,-0.006l0.033,-0.001l0.034,0.001Zm-5.034,8.299l10,0l-5,-8l-5,8Z"/><path d="M83.564,14.732l5,8l-10,0l5,-8Z" style="fill:#262626;"/><path d="M83.598,14.434l0.033,0.006l0.033,0.009l0.031,0.013l0.029,0.016l0.028,0.02l0.025,0.023l0.022,0.025l0.02,0.027l5,8l0.016,0.03l0.013,0.031l0.009,0.032l0.005,0.033l0.002,0.034l-0.002,0.033l-0.005,0.033l-0.01,0.033l-0.013,0.031l-0.016,0.029l-0.019,0.028l-0.023,0.025l-0.025,0.022l-0.027,0.019l-0.03,0.017l-0.031,0.012l-0.032,0.01l-0.033,0.005l-0.034,0.002l-10,0l-0.033,-0.002l-0.033,-0.005l-0.033,-0.01l-0.031,-0.012l-0.029,-0.017l-0.028,-0.019l-0.025,-0.022l-0.022,-0.025l-0.02,-0.028l-0.016,-0.029l-0.013,-0.031l-0.009,-0.033l-0.006,-0.033l-0.002,-0.033l0.002,-0.034l0.006,-0.033l0.009,-0.032l0.013,-0.031l0.016,-0.03l5,-8l0.019,-0.027l0.023,-0.025l0.025,-0.023l0.027,-0.02l0.03,-0.016l0.031,-0.013l0.032,-0.009l0.034,-0.006l0.033,-0.002l0.034,0.002Zm-5.034,8.298l10,0l-5,-8l-5,8Z"/><path d="M63.137,3.474l5,8l-10,0l5,-8Z" style="fill:#262626;"/><path d="M63.171,3.175l0.033,0.006l0.032,0.01l0.031,0.012l0.03,0.017l0.027,0.019l0.026,0.023l0.022,0.025l0.019,0.028l5,8l0.017,0.029l0.012,0.031l0.01,0.032l0.005,0.034l0.002,0.033l-0.002,0.034l-0.006,0.033l-0.009,0.032l-0.013,0.031l-0.016,0.029l-0.02,0.028l-0.022,0.025l-0.025,0.022l-0.028,0.02l-0.029,0.016l-0.031,0.013l-0.032,0.009l-0.033,0.006l-0.034,0.002l-10,0l-0.034,-0.002l-0.033,-0.006l-0.032,-0.009l-0.031,-0.013l-0.029,-0.016l-0.028,-0.02l-0.025,-0.022l-0.022,-0.025l-0.02,-0.028l-0.016,-0.029l-0.013,-0.031l-0.009,-0.032l-0.006,-0.033l-0.002,-0.034l0.002,-0.033l0.005,-0.034l0.01,-0.032l0.012,-0.031l0.017,-0.029l5,-8l0.019,-0.028l0.023,-0.025l0.025,-0.023l0.027,-0.019l0.03,-0.017l0.031,-0.012l0.032,-0.01l0.033,-0.006l0.034,-0.001l0.034,0.001Zm-5.034,8.299l10,0l-5,-8l-5,8Z"/><path d="M69.962,14.732l5,8l-10,0l5,-8Z" style="fill:#262626;"/><path d="M69.996,14.434l0.033,0.006l0.032,0.009l0.031,0.013l0.03,0.016l0.027,0.02l0.025,0.023l0.023,0.025l0.019,0.027l5,8l0.016,0.03l0.013,0.031l0.009,0.032l0.006,0.033l0.002,0.034l-0.002,0.033l-0.006,0.033l-0.009,0.033l-0.013,0.031l-0.016,0.029l-0.02,0.028l-0.022,0.025l-0.025,0.022l-0.028,0.019l-0.029,0.017l-0.031,0.012l-0.032,0.01l-0.034,0.005l-0.033,0.002l-10,0l-0.034,-0.002l-0.033,-0.005l-0.032,-0.01l-0.031,-0.012l-0.03,-0.017l-0.027,-0.019l-0.025,-0.022l-0.022,-0.025l-0.02,-0.028l-0.016,-0.029l-0.013,-0.031l-0.01,-0.033l-0.005,-0.033l-0.002,-0.033l0.002,-0.034l0.005,-0.033l0.009,-0.032l0.013,-0.031l0.016,-0.03l5,-8l0.02,-0.027l0.022,-0.025l0.025,-0.023l0.028,-0.02l0.029,-0.016l0.032,-0.013l0.032,-0.009l0.033,-0.006l0.034,-0.002l0.034,0.002Zm-5.034,8.298l10,0l-5,-8l-5,8Z"/><path d="M77.112,25.606l5,8l-10,0l5,-8Z" style="fill:#262626;"/><path d="M77.146,25.308l0.033,0.006l0.032,0.009l0.031,0.013l0.03,0.017l0.027,0.019l0.026,0.023l0.022,0.025l0.019,0.027l5,8l0.017,0.03l0.012,0.031l0.01,0.032l0.005,0.033l0.002,0.034l-0.002,0.033l-0.006,0.034l-0.009,0.032l-0.013,0.031l-0.016,0.029l-0.02,0.028l-0.022,0.025l-0.025,0.022l-0.028,0.02l-0.029,0.016l-0.031,0.013l-0.032,0.009l-0.033,0.006l-0.034,0.001l-10,0l-0.034,-0.001l-0.033,-0.006l-0.032,-0.009l-0.031,-0.013l-0.029,-0.016l-0.028,-0.02l-0.025,-0.022l-0.022,-0.025l-0.02,-0.028l-0.016,-0.029l-0.013,-0.031l-0.009,-0.032l-0.006,-0.034l-0.002,-0.033l0.002,-0.034l0.005,-0.033l0.01,-0.032l0.012,-0.031l0.017,-0.03l5,-8l0.019,-0.027l0.023,-0.025l0.025,-0.023l0.027,-0.019l0.03,-0.017l0.031,-0.013l0.032,-0.009l0.033,-0.006l0.034,-0.002l0.034,0.002Zm-5.034,8.298l10,0l-5,-8l-5,8Z"/><path d="M49.535,3.474l5,8l-10,0l5,-8Z" style="fill:#262626;"/><path d="M49.568,3.175l0.034,0.006l0.032,0.01l0.031,0.012l0.03,0.017l0.027,0.019l0.025,0.023l0.023,0.025l0.019,0.028l5,8l0.016,0.029l0.013,0.031l0.009,0.032l0.006,0.034l0.002,0.033l-0.002,0.034l-0.006,0.033l-0.009,0.032l-0.013,0.031l-0.016,0.029l-0.02,0.028l-0.022,0.025l-0.025,0.022l-0.028,0.02l-0.029,0.016l-0.031,0.013l-0.033,0.009l-0.033,0.006l-0.033,0.002l-10,0l-0.034,-0.002l-0.033,-0.006l-0.032,-0.009l-0.031,-0.013l-0.03,-0.016l-0.027,-0.02l-0.025,-0.022l-0.023,-0.025l-0.019,-0.028l-0.016,-0.029l-0.013,-0.031l-0.01,-0.032l-0.005,-0.033l-0.002,-0.034l0.002,-0.033l0.005,-0.034l0.009,-0.032l0.013,-0.031l0.016,-0.029l5,-8l0.02,-0.028l0.022,-0.025l0.025,-0.023l0.028,-0.019l0.029,-0.017l0.031,-0.012l0.033,-0.01l0.033,-0.006l0.034,-0.001l0.033,0.001Zm-5.033,8.299l10,0l-5,-8l-5,8Z"/><path d="M56.36,14.732l5,8l-10,0l5,-8Z" style="fill:#262626;"/><path d="M56.393,14.434l0.033,0.006l0.033,0.009l0.031,0.013l0.03,0.016l0.027,0.02l0.025,0.023l0.023,0.025l0.019,0.027l5,8l0.016,0.03l0.013,0.031l0.009,0.032l0.006,0.033l0.002,0.034l-0.002,0.033l-0.006,0.033l-0.009,0.033l-0.013,0.031l-0.017,0.029l-0.019,0.028l-0.022,0.025l-0.026,0.022l-0.027,0.019l-0.029,0.017l-0.031,0.012l-0.033,0.01l-0.033,0.005l-0.033,0.002l-10,0l-0.034,-0.002l-0.033,-0.005l-0.032,-0.01l-0.031,-0.012l-0.03,-0.017l-0.027,-0.019l-0.025,-0.022l-0.023,-0.025l-0.019,-0.028l-0.017,-0.029l-0.012,-0.031l-0.01,-0.033l-0.005,-0.033l-0.002,-0.033l0.001,-0.034l0.006,-0.033l0.009,-0.032l0.013,-0.031l0.016,-0.03l5,-8l0.02,-0.027l0.022,-0.025l0.025,-0.023l0.028,-0.02l0.029,-0.016l0.031,-0.013l0.033,-0.009l0.033,-0.006l0.034,-0.002l0.033,0.002Zm-5.033,8.298l10,0l-5,-8l-5,8Z"/><path d="M63.51,25.606l5,8l-10,0l5,-8Z" style="fill:#262626;"/><path d="M63.543,25.308l0.034,0.006l0.032,0.009l0.031,0.013l0.03,0.017l0.027,0.019l0.025,0.023l0.023,0.025l0.019,0.027l5,8l0.016,0.03l0.013,0.031l0.009,0.032l0.006,0.033l0.002,0.034l-0.002,0.033l-0.006,0.034l-0.009,0.032l-0.013,0.031l-0.016,0.029l-0.02,0.028l-0.022,0.025l-0.025,0.022l-0.028,0.02l-0.029,0.016l-0.031,0.013l-0.033,0.009l-0.033,0.006l-0.033,0.001l-10,0l-0.034,-0.001l-0.033,-0.006l-0.032,-0.009l-0.031,-0.013l-0.03,-0.016l-0.027,-0.02l-0.025,-0.022l-0.023,-0.025l-0.019,-0.028l-0.016,-0.029l-0.013,-0.031l-0.01,-0.032l-0.005,-0.034l-0.002,-0.033l0.002,-0.034l0.005,-0.033l0.009,-0.032l0.013,-0.031l0.016,-0.03l5,-8l0.02,-0.027l0.022,-0.025l0.025,-0.023l0.028,-0.019l0.029,-0.017l0.031,-0.013l0.033,-0.009l0.033,-0.006l0.034,-0.002l0.033,0.002Zm-5.033,8.298l10,0l-5,-8l-5,8Z"/><path d="M70.448,36.396l5,8l-10,0l5,-8Z" style="fill:#262626;"/><path d="M70.481,36.098l0.033,0.006l0.033,0.009l0.031,0.013l0.03,0.016l0.027,0.02l0.025,0.022l0.023,0.026l0.019,0.027l5,8l0.016,0.03l0.013,0.031l0.009,0.032l0.006,0.033l0.002,0.034l-0.002,0.033l-0.006,0.033l-0.009,0.033l-0.013,0.031l-0.017,0.029l-0.019,0.027l-0.022,0.025l-0.026,0.023l-0.027,0.019l-0.029,0.017l-0.031,0.012l-0.033,0.01l-0.033,0.005l-0.033,0.002l-10,0l-0.034,-0.002l-0.033,-0.005l-0.032,-0.01l-0.031,-0.012l-0.03,-0.017l-0.027,-0.019l-0.025,-0.023l-0.023,-0.025l-0.019,-0.027l-0.017,-0.029l-0.012,-0.031l-0.01,-0.033l-0.005,-0.033l-0.002,-0.033l0.001,-0.034l0.006,-0.033l0.009,-0.032l0.013,-0.031l0.016,-0.03l5,-8l0.02,-0.027l0.022,-0.026l0.025,-0.022l0.028,-0.02l0.029,-0.016l0.031,-0.013l0.033,-0.009l0.033,-0.006l0.034,-0.002l0.033,0.002Zm-5.033,8.298l10,0l-5,-8l-5,8Z"/></g><g><path d="M60.944,47.319l5,8l-10,0l5,-8Z" style="fill:#e02115;"/><path d="M60.978,47.021l0.033,0.006l0.032,0.009l0.031,0.013l0.03,0.017l0.027,0.019l0.026,0.023l0.022,0.025l0.019,0.027l5,8l0.017,0.03l0.012,0.031l0.01,0.032l0.005,0.033l0.002,0.034l-0.002,0.034l-0.006,0.033l-0.009,0.032l-0.013,0.031l-0.016,0.029l-0.02,0.028l-0.022,0.025l-0.025,0.022l-0.028,0.02l-0.029,0.016l-0.031,0.013l-0.032,0.009l-0.033,0.006l-0.034,0.001l-10,0l-0.034,-0.001l-0.033,-0.006l-0.032,-0.009l-0.031,-0.013l-0.029,-0.016l-0.028,-0.02l-0.025,-0.022l-0.022,-0.025l-0.02,-0.028l-0.016,-0.029l-0.013,-0.031l-0.009,-0.032l-0.006,-0.033l-0.002,-0.034l0.002,-0.034l0.005,-0.033l0.01,-0.032l0.012,-0.031l0.017,-0.03l5,-8l0.019,-0.027l0.023,-0.025l0.025,-0.023l0.027,-0.019l0.03,-0.017l0.031,-0.013l0.032,-0.009l0.033,-0.006l0.034,-0.002l0.034,0.002Zm-5.034,8.298l10,0l-5,-8l-5,8Z" style="fill:#e02115;"/><path d="M54.119,36.061l5,8l-10,0l5,-8Z" style="fill:#e02115;"/><path d="M54.153,35.763l0.033,0.005l0.032,0.01l0.032,0.013l0.029,0.016l0.028,0.02l0.025,0.022l0.022,0.025l0.02,0.028l5,8l0.016,0.029l0.013,0.031l0.009,0.033l0.005,0.033l0.002,0.033l-0.002,0.034l-0.005,0.033l-0.01,0.032l-0.013,0.031l-0.016,0.03l-0.019,0.027l-0.023,0.025l-0.025,0.023l-0.027,0.019l-0.03,0.016l-0.031,0.013l-0.032,0.009l-0.033,0.006l-0.034,0.002l-10,0l-0.033,-0.002l-0.033,-0.006l-0.033,-0.009l-0.031,-0.013l-0.029,-0.016l-0.028,-0.019l-0.025,-0.023l-0.022,-0.025l-0.02,-0.027l-0.016,-0.03l-0.013,-0.031l-0.009,-0.032l-0.006,-0.033l-0.002,-0.034l0.002,-0.033l0.006,-0.033l0.009,-0.033l0.013,-0.031l0.016,-0.029l5,-8l0.019,-0.028l0.023,-0.025l0.025,-0.022l0.027,-0.02l0.03,-0.016l0.031,-0.013l0.032,-0.01l0.034,-0.005l0.033,-0.002l0.034,0.002Zm-5.034,8.298l10,0l-5,-8l-5,8Z" style="fill:#e02115;"/><path d="M46.969,25.187l5,8l-10,0l5,-8Z" style="fill:#e02115;"/><path d="M47.003,24.889l0.033,0.005l0.032,0.01l0.031,0.013l0.03,0.016l0.027,0.019l0.026,0.023l0.022,0.025l0.019,0.028l5,8l0.017,0.029l0.012,0.031l0.01,0.033l0.005,0.033l0.002,0.033l-0.002,0.034l-0.006,0.033l-0.009,0.032l-0.013,0.031l-0.016,0.03l-0.02,0.027l-0.022,0.025l-0.025,0.022l-0.028,0.02l-0.029,0.016l-0.031,0.013l-0.032,0.009l-0.033,0.006l-0.034,0.002l-10,0l-0.034,-0.002l-0.033,-0.006l-0.032,-0.009l-0.031,-0.013l-0.029,-0.016l-0.028,-0.02l-0.025,-0.022l-0.022,-0.025l-0.02,-0.027l-0.016,-0.03l-0.013,-0.031l-0.009,-0.032l-0.006,-0.033l-0.002,-0.034l0.002,-0.033l0.005,-0.033l0.01,-0.033l0.012,-0.031l0.017,-0.029l5,-8l0.019,-0.028l0.023,-0.025l0.025,-0.023l0.027,-0.019l0.03,-0.016l0.031,-0.013l0.032,-0.01l0.033,-0.005l0.034,-0.002l0.034,0.002Zm-5.034,8.298l10,0l-5,-8l-5,8Z" style="fill:#e02115;"/><path d="M40.031,14.397l5,8l-10,0l5,-8Z" style="fill:#e02115;"/><path d="M40.065,14.099l0.033,0.005l0.032,0.01l0.032,0.013l0.029,0.016l0.028,0.02l0.025,0.022l0.022,0.025l0.02,0.028l5,8l0.016,0.029l0.013,0.031l0.009,0.033l0.005,0.033l0.002,0.033l-0.002,0.034l-0.005,0.033l-0.01,0.032l-0.013,0.031l-0.016,0.03l-0.019,0.027l-0.023,0.025l-0.025,0.023l-0.027,0.019l-0.03,0.016l-0.031,0.013l-0.032,0.009l-0.033,0.006l-0.034,0.002l-10,0l-0.033,-0.002l-0.034,-0.006l-0.032,-0.009l-0.031,-0.013l-0.029,-0.016l-0.028,-0.019l-0.025,-0.023l-0.022,-0.025l-0.02,-0.027l-0.016,-0.03l-0.013,-0.031l-0.009,-0.032l-0.006,-0.033l-0.002,-0.034l0.002,-0.033l0.006,-0.033l0.009,-0.033l0.013,-0.031l0.016,-0.029l5,-8l0.019,-0.028l0.023,-0.025l0.025,-0.022l0.027,-0.02l0.03,-0.016l0.031,-0.013l0.032,-0.01l0.033,-0.005l0.034,-0.002l0.034,0.002Zm-5.034,8.298l10,0l-5,-8l-5,8Z" style="fill:#e02115;"/><path d="M33.057,3.241l5,8l-10,0l5,-8Z" style="fill:#e02115;"/><path d="M33.091,2.943l0.033,0.006l0.032,0.009l0.031,0.013l0.03,0.016l0.027,0.02l0.026,0.022l0.022,0.025l0.019,0.028l5,8l0.017,0.029l0.012,0.032l0.01,0.032l0.005,0.033l0.002,0.034l-0.002,0.033l-0.006,0.033l-0.009,0.032l-0.013,0.031l-0.016,0.03l-0.02,0.027l-0.022,0.025l-0.025,0.023l-0.028,0.019l-0.029,0.016l-0.031,0.013l-0.032,0.009l-0.033,0.006l-0.034,0.002l-10,0l-0.034,-0.002l-0.033,-0.006l-0.032,-0.009l-0.031,-0.013l-0.029,-0.016l-0.028,-0.019l-0.025,-0.023l-0.022,-0.025l-0.02,-0.027l-0.016,-0.03l-0.013,-0.031l-0.009,-0.032l-0.006,-0.033l-0.002,-0.033l0.002,-0.034l0.005,-0.033l0.01,-0.032l0.012,-0.032l0.017,-0.029l5,-8l0.019,-0.028l0.023,-0.025l0.025,-0.022l0.027,-0.02l0.03,-0.016l0.031,-0.013l0.032,-0.009l0.033,-0.006l0.034,-0.002l0.034,0.002Zm-5.034,8.298l10,0l-5,-8l-5,8Z" style="fill:#e02115;"/><path d="M47.342,47.319l5,8l-10,0l5,-8Z" style="fill:#e02115;"/><path d="M47.375,47.021l0.034,0.006l0.032,0.009l0.031,0.013l0.03,0.017l0.027,0.019l0.025,0.023l0.023,0.025l0.019,0.027l5,8l0.016,0.03l0.013,0.031l0.009,0.032l0.006,0.033l0.002,0.034l-0.002,0.034l-0.006,0.033l-0.009,0.032l-0.013,0.031l-0.016,0.029l-0.02,0.028l-0.022,0.025l-0.025,0.022l-0.028,0.02l-0.029,0.016l-0.031,0.013l-0.033,0.009l-0.033,0.006l-0.033,0.001l-10,0l-0.034,-0.001l-0.033,-0.006l-0.032,-0.009l-0.031,-0.013l-0.03,-0.016l-0.027,-0.02l-0.025,-0.022l-0.023,-0.025l-0.019,-0.028l-0.016,-0.029l-0.013,-0.031l-0.01,-0.032l-0.005,-0.033l-0.002,-0.034l0.002,-0.034l0.005,-0.033l0.009,-0.032l0.013,-0.031l0.016,-0.03l5,-8l0.02,-0.027l0.022,-0.025l0.025,-0.023l0.028,-0.019l0.029,-0.017l0.031,-0.013l0.033,-0.009l0.033,-0.006l0.034,-0.002l0.033,0.002Zm-5.033,8.298l10,0l-5,-8l-5,8Z" style="fill:#e02115;"/><path d="M40.517,36.061l5,8l-10,0l5,-8Z" style="fill:#e02115;"/><path d="M40.551,35.763l0.033,0.005l0.032,0.01l0.031,0.013l0.03,0.016l0.027,0.02l0.025,0.022l0.023,0.025l0.019,0.028l5,8l0.016,0.029l0.013,0.031l0.009,0.033l0.006,0.033l0.002,0.033l-0.002,0.034l-0.006,0.033l-0.009,0.032l-0.013,0.031l-0.016,0.03l-0.02,0.027l-0.022,0.025l-0.025,0.023l-0.028,0.019l-0.029,0.016l-0.031,0.013l-0.032,0.009l-0.034,0.006l-0.033,0.002l-10,0l-0.034,-0.002l-0.033,-0.006l-0.032,-0.009l-0.031,-0.013l-0.03,-0.016l-0.027,-0.019l-0.025,-0.023l-0.023,-0.025l-0.019,-0.027l-0.016,-0.03l-0.013,-0.031l-0.01,-0.032l-0.005,-0.033l-0.002,-0.034l0.002,-0.033l0.005,-0.033l0.009,-0.033l0.013,-0.031l0.016,-0.029l5,-8l0.02,-0.028l0.022,-0.025l0.025,-0.022l0.028,-0.02l0.029,-0.016l0.032,-0.013l0.032,-0.01l0.033,-0.005l0.034,-0.002l0.034,0.002Zm-5.034,8.298l10,0l-5,-8l-5,8Z" style="fill:#e02115;"/><path d="M33.367,25.187l5,8l-10,0l5,-8Z" style="fill:#e02115;"/><path d="M33.4,24.889l0.034,0.005l0.032,0.01l0.031,0.013l0.03,0.016l0.027,0.019l0.025,0.023l0.023,0.025l0.019,0.028l5,8l0.016,0.029l0.013,0.031l0.009,0.033l0.006,0.033l0.002,0.033l-0.002,0.034l-0.006,0.033l-0.009,0.032l-0.013,0.031l-0.016,0.03l-0.02,0.027l-0.022,0.025l-0.025,0.022l-0.028,0.02l-0.029,0.016l-0.031,0.013l-0.033,0.009l-0.033,0.006l-0.033,0.002l-10,0l-0.034,-0.002l-0.033,-0.006l-0.032,-0.009l-0.031,-0.013l-0.03,-0.016l-0.027,-0.02l-0.025,-0.022l-0.023,-0.025l-0.019,-0.027l-0.016,-0.03l-0.013,-0.031l-0.01,-0.032l-0.005,-0.033l-0.002,-0.034l0.002,-0.033l0.005,-0.033l0.009,-0.033l0.013,-0.031l0.016,-0.029l5,-8l0.02,-0.028l0.022,-0.025l0.025,-0.023l0.028,-0.019l0.029,-0.016l0.031,-0.013l0.033,-0.01l0.033,-0.005l0.034,-0.002l0.033,0.002Zm-5.033,8.298l10,0l-5,-8l-5,8Z" style="fill:#e02115;"/><path d="M26.429,14.397l5,8l-10,0l5,-8Z" style="fill:#e02115;"/><path d="M26.463,14.099l0.033,0.005l0.032,0.01l0.031,0.013l0.03,0.016l0.027,0.02l0.025,0.022l0.023,0.025l0.019,0.028l5,8l0.016,0.029l0.013,0.031l0.009,0.033l0.006,0.033l0.002,0.033l-0.002,0.034l-0.006,0.033l-0.009,0.032l-0.013,0.031l-0.016,0.03l-0.02,0.027l-0.022,0.025l-0.025,0.023l-0.028,0.019l-0.029,0.016l-0.031,0.013l-0.032,0.009l-0.034,0.006l-0.033,0.002l-10,0l-0.034,-0.002l-0.033,-0.006l-0.032,-0.009l-0.031,-0.013l-0.03,-0.016l-0.027,-0.019l-0.025,-0.023l-0.023,-0.025l-0.019,-0.027l-0.016,-0.03l-0.013,-0.031l-0.01,-0.032l-0.005,-0.033l-0.002,-0.034l0.002,-0.033l0.005,-0.033l0.009,-0.033l0.013,-0.031l0.016,-0.029l5,-8l0.02,-0.028l0.022,-0.025l0.025,-0.022l0.028,-0.02l0.029,-0.016l0.032,-0.013l0.032,-0.01l0.033,-0.005l0.034,-0.002l0.034,0.002Zm-5.034,8.298l10,0l-5,-8l-5,8Z" style="fill:#e02115;"/><path d="M33.739,47.319l5,8l-10,0l5,-8Z" style="fill:#e02115;"/><path d="M33.773,47.021l0.033,0.006l0.033,0.009l0.031,0.013l0.029,0.017l0.028,0.019l0.025,0.023l0.022,0.025l0.02,0.027l5,8l0.016,0.03l0.013,0.031l0.009,0.032l0.006,0.033l0.001,0.034l-0.002,0.034l-0.005,0.033l-0.01,0.032l-0.012,0.031l-0.017,0.029l-0.019,0.028l-0.023,0.025l-0.025,0.022l-0.027,0.02l-0.03,0.016l-0.031,0.013l-0.032,0.009l-0.033,0.006l-0.034,0.001l-10,0l-0.033,-0.001l-0.033,-0.006l-0.033,-0.009l-0.031,-0.013l-0.029,-0.016l-0.027,-0.02l-0.026,-0.022l-0.022,-0.025l-0.019,-0.028l-0.017,-0.029l-0.013,-0.031l-0.009,-0.032l-0.006,-0.033l-0.002,-0.034l0.002,-0.034l0.006,-0.033l0.009,-0.032l0.013,-0.031l0.016,-0.03l5,-8l0.019,-0.027l0.023,-0.025l0.025,-0.023l0.027,-0.019l0.03,-0.017l0.031,-0.013l0.032,-0.009l0.034,-0.006l0.033,-0.002l0.034,0.002Zm-5.034,8.298l10,0l-5,-8l-5,8Z" style="fill:#e02115;"/><path d="M26.915,36.061l5,8l-10,0l5,-8Z" style="fill:#e02115;"/><path d="M26.948,35.763l0.033,0.005l0.033,0.01l0.031,0.013l0.029,0.016l0.028,0.02l0.025,0.022l0.022,0.025l0.02,0.028l5,8l0.016,0.029l0.013,0.031l0.009,0.033l0.006,0.033l0.002,0.033l-0.002,0.034l-0.006,0.033l-0.009,0.032l-0.013,0.031l-0.017,0.03l-0.019,0.027l-0.023,0.025l-0.025,0.023l-0.027,0.019l-0.029,0.016l-0.031,0.013l-0.033,0.009l-0.033,0.006l-0.033,0.002l-10,0l-0.034,-0.002l-0.033,-0.006l-0.032,-0.009l-0.031,-0.013l-0.03,-0.016l-0.027,-0.019l-0.025,-0.023l-0.023,-0.025l-0.019,-0.027l-0.017,-0.03l-0.012,-0.031l-0.01,-0.032l-0.006,-0.033l-0.001,-0.034l0.001,-0.033l0.006,-0.033l0.009,-0.033l0.013,-0.031l0.016,-0.029l5,-8l0.02,-0.028l0.022,-0.025l0.025,-0.022l0.028,-0.02l0.029,-0.016l0.031,-0.013l0.033,-0.01l0.033,-0.005l0.034,-0.002l0.033,0.002Zm-5.033,8.298l10,0l-5,-8l-5,8Z" style="fill:#e02115;"/><path d="M19.764,25.187l5,8l-10,0l5,-8Z" style="fill:#e02115;"/><path d="M19.798,24.889l0.033,0.005l0.033,0.01l0.031,0.013l0.029,0.016l0.028,0.019l0.025,0.023l0.022,0.025l0.02,0.028l5,8l0.016,0.029l0.013,0.031l0.009,0.033l0.006,0.033l0.001,0.033l-0.002,0.034l-0.005,0.033l-0.01,0.032l-0.012,0.031l-0.017,0.03l-0.019,0.027l-0.023,0.025l-0.025,0.022l-0.027,0.02l-0.03,0.016l-0.031,0.013l-0.032,0.009l-0.033,0.006l-0.034,0.002l-10,0l-0.033,-0.002l-0.033,-0.006l-0.033,-0.009l-0.031,-0.013l-0.029,-0.016l-0.027,-0.02l-0.026,-0.022l-0.022,-0.025l-0.019,-0.027l-0.017,-0.03l-0.013,-0.031l-0.009,-0.032l-0.006,-0.033l-0.002,-0.034l0.002,-0.033l0.006,-0.033l0.009,-0.033l0.013,-0.031l0.016,-0.029l5,-8l0.019,-0.028l0.023,-0.025l0.025,-0.023l0.027,-0.019l0.03,-0.016l0.031,-0.013l0.032,-0.01l0.034,-0.005l0.033,-0.002l0.034,0.002Zm-5.034,8.298l10,0l-5,-8l-5,8Z" style="fill:#e02115;"/><path d="M20.137,47.319l5,8l-10,0l5,-8Z" style="fill:#e02115;"/><path d="M20.171,47.021l0.033,0.006l0.032,0.009l0.032,0.013l0.029,0.017l0.027,0.019l0.026,0.023l0.022,0.025l0.019,0.027l5,8l0.017,0.03l0.012,0.031l0.01,0.032l0.005,0.033l0.002,0.034l-0.002,0.034l-0.006,0.033l-0.009,0.032l-0.013,0.031l-0.016,0.029l-0.02,0.028l-0.022,0.025l-0.025,0.022l-0.028,0.02l-0.029,0.016l-0.031,0.013l-0.032,0.009l-0.033,0.006l-0.034,0.001l-10,0l-0.034,-0.001l-0.033,-0.006l-0.032,-0.009l-0.031,-0.013l-0.029,-0.016l-0.028,-0.02l-0.025,-0.022l-0.022,-0.025l-0.02,-0.028l-0.016,-0.029l-0.013,-0.031l-0.009,-0.032l-0.006,-0.033l-0.002,-0.034l0.002,-0.034l0.005,-0.033l0.01,-0.032l0.012,-0.031l0.017,-0.03l5,-8l0.019,-0.027l0.023,-0.025l0.025,-0.023l0.027,-0.019l0.03,-0.017l0.031,-0.013l0.032,-0.009l0.033,-0.006l0.034,-0.002l0.034,0.002Zm-5.034,8.298l10,0l-5,-8l-5,8Z" style="fill:#e02115;"/><path d="M13.312,36.061l5,8l-10,0l5,-8Z" style="fill:#e02115;"/><path d="M13.346,35.763l0.033,0.005l0.033,0.01l0.031,0.013l0.029,0.016l0.028,0.02l0.025,0.022l0.022,0.025l0.02,0.028l5,8l0.016,0.029l0.013,0.031l0.009,0.033l0.005,0.033l0.002,0.033l-0.002,0.034l-0.005,0.033l-0.01,0.032l-0.013,0.031l-0.016,0.03l-0.019,0.027l-0.023,0.025l-0.025,0.023l-0.027,0.019l-0.03,0.016l-0.031,0.013l-0.032,0.009l-0.033,0.006l-0.034,0.002l-10,0l-0.033,-0.002l-0.033,-0.006l-0.033,-0.009l-0.031,-0.013l-0.029,-0.016l-0.028,-0.019l-0.025,-0.023l-0.022,-0.025l-0.02,-0.027l-0.016,-0.03l-0.013,-0.031l-0.009,-0.032l-0.006,-0.033l-0.002,-0.034l0.002,-0.033l0.006,-0.033l0.009,-0.033l0.013,-0.031l0.016,-0.029l5,-8l0.019,-0.028l0.023,-0.025l0.025,-0.022l0.027,-0.02l0.03,-0.016l0.031,-0.013l0.032,-0.01l0.034,-0.005l0.033,-0.002l0.034,0.002Zm-5.034,8.298l10,0l-5,-8l-5,8Z" style="fill:#e02115;"/><path d="M6.535,47.319l5,8l-10,0l5,-8Z" style="fill:#e02115;"/><path d="M6.568,47.021l0.034,0.006l0.032,0.009l0.031,0.013l0.03,0.017l0.027,0.019l0.025,0.023l0.023,0.025l0.019,0.027l5,8l0.016,0.03l0.013,0.031l0.009,0.032l0.006,0.033l0.002,0.034l-0.002,0.034l-0.006,0.033l-0.009,0.032l-0.013,0.031l-0.016,0.029l-0.02,0.028l-0.022,0.025l-0.025,0.022l-0.028,0.02l-0.029,0.016l-0.031,0.013l-0.033,0.009l-0.033,0.006l-0.033,0.001l-10,0l-0.034,-0.001l-0.033,-0.006l-0.032,-0.009l-0.031,-0.013l-0.03,-0.016l-0.027,-0.02l-0.025,-0.022l-0.023,-0.025l-0.019,-0.028l-0.016,-0.029l-0.013,-0.031l-0.01,-0.032l-0.005,-0.033l-0.002,-0.034l0.002,-0.034l0.005,-0.033l0.009,-0.032l0.013,-0.031l0.016,-0.03l5,-8l0.02,-0.027l0.022,-0.025l0.025,-0.023l0.028,-0.019l0.029,-0.017l0.031,-0.013l0.033,-0.009l0.033,-0.006l0.034,-0.002l0.033,0.002Zm-5.033,8.298l10,0l-5,-8l-5,8Z" style="fill:#e02115;"/><path d="M13.137,54.319l-5,-8l10,0l-5,8Z" style="fill:#e02115;"/><path d="M18.171,46.021l0.033,0.006l0.032,0.009l0.031,0.013l0.029,0.016l0.028,0.02l0.025,0.022l0.022,0.025l0.02,0.028l0.016,0.029l0.013,0.031l0.009,0.032l0.006,0.033l0.002,0.034l-0.002,0.034l-0.005,0.033l-0.01,0.032l-0.012,0.031l-0.017,0.029l-5,8l-0.019,0.028l-0.022,0.025l-0.026,0.023l-0.027,0.019l-0.029,0.017l-0.032,0.013l-0.032,0.009l-0.033,0.006l-0.034,0.001l-0.034,-0.001l-0.033,-0.006l-0.032,-0.009l-0.031,-0.013l-0.03,-0.017l-0.027,-0.019l-0.025,-0.023l-0.023,-0.025l-0.019,-0.028l-5,-8l-0.017,-0.029l-0.012,-0.031l-0.01,-0.032l-0.005,-0.033l-0.002,-0.034l0.002,-0.034l0.006,-0.033l0.009,-0.032l0.013,-0.031l0.016,-0.029l0.02,-0.028l0.022,-0.025l0.025,-0.022l0.028,-0.02l0.029,-0.016l0.031,-0.013l0.032,-0.009l0.033,-0.006l0.034,-0.002l10,0l0.034,0.002Zm-10.034,0.298l5,8l5,-8l-10,0Z" style="fill:#e02115;"/><path d="M26.739,54.319l-5,-8l10,0l-5,8Z" style="fill:#e02115;"/><path d="M31.773,46.021l0.033,0.006l0.032,0.009l0.031,0.013l0.03,0.016l0.027,0.02l0.025,0.022l0.023,0.025l0.019,0.028l0.017,0.029l0.012,0.031l0.01,0.032l0.005,0.033l0.002,0.034l-0.001,0.034l-0.006,0.033l-0.009,0.032l-0.013,0.031l-0.016,0.029l-5,8l-0.02,0.028l-0.022,0.025l-0.025,0.023l-0.028,0.019l-0.029,0.017l-0.031,0.013l-0.033,0.009l-0.033,0.006l-0.034,0.001l-0.033,-0.001l-0.034,-0.006l-0.032,-0.009l-0.031,-0.013l-0.03,-0.017l-0.027,-0.019l-0.025,-0.023l-0.023,-0.025l-0.019,-0.028l-5,-8l-0.016,-0.029l-0.013,-0.031l-0.009,-0.032l-0.006,-0.033l-0.002,-0.034l0.002,-0.034l0.006,-0.033l0.009,-0.032l0.013,-0.031l0.017,-0.029l0.019,-0.028l0.022,-0.025l0.026,-0.022l0.027,-0.02l0.029,-0.016l0.031,-0.013l0.033,-0.009l0.033,-0.006l0.033,-0.002l10,0l0.034,0.002Zm-10.034,0.298l5,8l5,-8l-10,0Z" style="fill:#e02115;"/><path d="M19.915,43.061l-5,-8l10,0l-5,8Z" style="fill:#e02115;"/><path d="M24.948,34.763l0.033,0.005l0.033,0.01l0.031,0.012l0.029,0.017l0.027,0.019l0.025,0.023l0.023,0.025l0.019,0.027l0.017,0.029l0.013,0.031l0.009,0.033l0.006,0.033l0.002,0.033l-0.002,0.034l-0.006,0.033l-0.009,0.032l-0.013,0.031l-0.016,0.03l-5,8l-0.02,0.027l-0.022,0.026l-0.025,0.022l-0.028,0.02l-0.029,0.016l-0.031,0.013l-0.033,0.009l-0.033,0.006l-0.033,0.002l-0.034,-0.002l-0.033,-0.006l-0.033,-0.009l-0.031,-0.013l-0.029,-0.016l-0.028,-0.02l-0.025,-0.022l-0.022,-0.026l-0.02,-0.027l-5,-8l-0.016,-0.03l-0.013,-0.031l-0.009,-0.032l-0.006,-0.033l-0.001,-0.034l0.001,-0.033l0.006,-0.033l0.01,-0.033l0.012,-0.031l0.017,-0.029l0.019,-0.027l0.023,-0.025l0.025,-0.023l0.027,-0.019l0.03,-0.017l0.031,-0.012l0.032,-0.01l0.033,-0.005l0.034,-0.002l10,0l0.033,0.002Zm-10.033,0.298l5,8l5,-8l-10,0Z" style="fill:#e02115;"/><path d="M40.342,54.319l-5,-8l10,0l-5,8Z" style="fill:#e02115;"/><path d="M45.375,46.021l0.033,0.006l0.033,0.009l0.031,0.013l0.029,0.016l0.028,0.02l0.025,0.022l0.022,0.025l0.02,0.028l0.016,0.029l0.013,0.031l0.009,0.032l0.006,0.033l0.002,0.034l-0.002,0.034l-0.006,0.033l-0.009,0.032l-0.013,0.031l-0.016,0.029l-5,8l-0.019,0.028l-0.023,0.025l-0.025,0.023l-0.027,0.019l-0.03,0.017l-0.031,0.013l-0.032,0.009l-0.034,0.006l-0.033,0.001l-0.034,-0.001l-0.033,-0.006l-0.033,-0.009l-0.031,-0.013l-0.029,-0.017l-0.028,-0.019l-0.025,-0.023l-0.022,-0.025l-0.02,-0.028l-5,-8l-0.016,-0.029l-0.013,-0.031l-0.009,-0.032l-0.005,-0.033l-0.002,-0.034l0.002,-0.034l0.005,-0.033l0.01,-0.032l0.013,-0.031l0.016,-0.029l0.019,-0.028l0.023,-0.025l0.025,-0.022l0.027,-0.02l0.03,-0.016l0.031,-0.013l0.032,-0.009l0.033,-0.006l0.034,-0.002l10,0l0.033,0.002Zm-10.033,0.298l5,8l5,-8l-10,0Z" style="fill:#e02115;"/><path d="M33.517,43.061l-5,-8l10,0l-5,8Z" style="fill:#e02115;"/><path d="M38.55,34.763l0.034,0.005l0.032,0.01l0.031,0.012l0.029,0.017l0.028,0.019l0.025,0.023l0.022,0.025l0.02,0.027l0.016,0.029l0.013,0.031l0.009,0.033l0.006,0.033l0.002,0.033l-0.002,0.034l-0.006,0.033l-0.009,0.032l-0.013,0.031l-0.016,0.03l-5,8l-0.019,0.027l-0.023,0.026l-0.025,0.022l-0.027,0.02l-0.03,0.016l-0.031,0.013l-0.032,0.009l-0.033,0.006l-0.034,0.002l-0.034,-0.002l-0.033,-0.006l-0.032,-0.009l-0.032,-0.013l-0.029,-0.016l-0.028,-0.02l-0.025,-0.022l-0.022,-0.026l-0.02,-0.027l-5,-8l-0.016,-0.03l-0.013,-0.031l-0.009,-0.032l-0.005,-0.033l-0.002,-0.034l0.002,-0.033l0.005,-0.033l0.01,-0.033l0.013,-0.031l0.016,-0.029l0.019,-0.027l0.023,-0.025l0.025,-0.023l0.027,-0.019l0.03,-0.017l0.031,-0.012l0.032,-0.01l0.033,-0.005l0.034,-0.002l10,0l0.033,0.002Zm-10.033,0.298l5,8l5,-8l-10,0Z" style="fill:#e02115;"/><path d="M26.367,32.187l-5,-8l10,0l-5,8Z" style="fill:#e02115;"/><path d="M31.4,23.889l0.033,0.005l0.033,0.009l0.031,0.013l0.029,0.017l0.028,0.019l0.025,0.022l0.022,0.025l0.02,0.028l0.016,0.029l0.013,0.031l0.009,0.032l0.006,0.034l0.002,0.033l-0.002,0.034l-0.006,0.033l-0.009,0.032l-0.013,0.031l-0.016,0.03l-5,8l-0.019,0.027l-0.023,0.025l-0.025,0.023l-0.027,0.019l-0.03,0.017l-0.031,0.013l-0.032,0.009l-0.034,0.006l-0.033,0.002l-0.034,-0.002l-0.033,-0.006l-0.033,-0.009l-0.031,-0.013l-0.029,-0.017l-0.028,-0.019l-0.025,-0.023l-0.022,-0.025l-0.02,-0.027l-5,-8l-0.016,-0.03l-0.013,-0.031l-0.009,-0.032l-0.005,-0.033l-0.002,-0.034l0.002,-0.033l0.005,-0.034l0.01,-0.032l0.013,-0.031l0.016,-0.029l0.019,-0.028l0.023,-0.025l0.025,-0.022l0.027,-0.019l0.03,-0.017l0.031,-0.013l0.032,-0.009l0.033,-0.005l0.034,-0.002l10,0l0.033,0.002Zm-10.033,0.298l5,8l5,-8l-10,0Z" style="fill:#e02115;"/><path d="M53.944,54.319l-5,-8l10,0l-5,8Z" style="fill:#e02115;"/><path d="M58.978,46.021l0.033,0.006l0.032,0.009l0.031,0.013l0.029,0.016l0.028,0.02l0.025,0.022l0.022,0.025l0.02,0.028l0.016,0.029l0.013,0.031l0.009,0.032l0.006,0.033l0.002,0.034l-0.002,0.034l-0.005,0.033l-0.01,0.032l-0.012,0.031l-0.017,0.029l-5,8l-0.019,0.028l-0.022,0.025l-0.026,0.023l-0.027,0.019l-0.03,0.017l-0.031,0.013l-0.032,0.009l-0.033,0.006l-0.034,0.001l-0.034,-0.001l-0.033,-0.006l-0.032,-0.009l-0.031,-0.013l-0.03,-0.017l-0.027,-0.019l-0.025,-0.023l-0.023,-0.025l-0.019,-0.028l-5,-8l-0.017,-0.029l-0.012,-0.031l-0.01,-0.032l-0.005,-0.033l-0.002,-0.034l0.002,-0.034l0.006,-0.033l0.009,-0.032l0.013,-0.031l0.016,-0.029l0.02,-0.028l0.022,-0.025l0.025,-0.022l0.028,-0.02l0.029,-0.016l0.031,-0.013l0.032,-0.009l0.033,-0.006l0.034,-0.002l10,0l0.034,0.002Zm-10.034,0.298l5,8l5,-8l-10,0Z" style="fill:#e02115;"/><path d="M47.119,43.061l-5,-8l10,0l-5,8Z" style="fill:#e02115;"/><path d="M52.153,34.763l0.033,0.005l0.032,0.01l0.031,0.012l0.03,0.017l0.027,0.019l0.025,0.023l0.023,0.025l0.019,0.027l0.016,0.029l0.013,0.031l0.01,0.033l0.005,0.033l0.002,0.033l-0.002,0.034l-0.005,0.033l-0.009,0.032l-0.013,0.031l-0.016,0.03l-5,8l-0.02,0.027l-0.022,0.026l-0.025,0.022l-0.028,0.02l-0.029,0.016l-0.032,0.013l-0.032,0.009l-0.033,0.006l-0.034,0.002l-0.033,-0.002l-0.034,-0.006l-0.032,-0.009l-0.031,-0.013l-0.03,-0.016l-0.027,-0.02l-0.025,-0.022l-0.023,-0.026l-0.019,-0.027l-5,-8l-0.016,-0.03l-0.013,-0.031l-0.009,-0.032l-0.006,-0.033l-0.002,-0.034l0.002,-0.033l0.006,-0.033l0.009,-0.033l0.013,-0.031l0.016,-0.029l0.02,-0.027l0.022,-0.025l0.025,-0.023l0.028,-0.019l0.029,-0.017l0.031,-0.012l0.033,-0.01l0.033,-0.005l0.033,-0.002l10,0l0.034,0.002Zm-10.034,0.298l5,8l5,-8l-10,0Z" style="fill:#e02115;"/><path d="M39.969,32.187l-5,-8l10,0l-5,8Z" style="fill:#e02115;"/><path d="M45.003,23.889l0.033,0.005l0.032,0.009l0.031,0.013l0.029,0.017l0.028,0.019l0.025,0.022l0.022,0.025l0.02,0.028l0.016,0.029l0.013,0.031l0.009,0.032l0.006,0.034l0.002,0.033l-0.002,0.034l-0.005,0.033l-0.01,0.032l-0.012,0.031l-0.017,0.03l-5,8l-0.019,0.027l-0.022,0.025l-0.026,0.023l-0.027,0.019l-0.03,0.017l-0.031,0.013l-0.032,0.009l-0.033,0.006l-0.034,0.002l-0.034,-0.002l-0.033,-0.006l-0.032,-0.009l-0.031,-0.013l-0.03,-0.017l-0.027,-0.019l-0.025,-0.023l-0.023,-0.025l-0.019,-0.027l-5,-8l-0.017,-0.03l-0.012,-0.031l-0.01,-0.032l-0.005,-0.033l-0.002,-0.034l0.002,-0.033l0.006,-0.034l0.009,-0.032l0.013,-0.031l0.016,-0.029l0.02,-0.028l0.022,-0.025l0.025,-0.022l0.028,-0.019l0.029,-0.017l0.031,-0.013l0.032,-0.009l0.033,-0.005l0.034,-0.002l10,0l0.034,0.002Zm-10.034,0.298l5,8l5,-8l-10,0Z" style="fill:#e02115;"/><path d="M33.031,21.397l-5,-8l10,0l-5,8Z" style="fill:#e02115;"/><path d="M38.065,13.099l0.033,0.005l0.032,0.01l0.031,0.013l0.03,0.016l0.027,0.019l0.025,0.023l0.023,0.025l0.019,0.027l0.016,0.029l0.013,0.031l0.01,0.033l0.005,0.033l0.002,0.033l-0.002,0.034l-0.005,0.033l-0.009,0.032l-0.013,0.031l-0.016,0.03l-5,8l-0.02,0.027l-0.022,0.026l-0.025,0.022l-0.028,0.02l-0.029,0.016l-0.032,0.013l-0.032,0.009l-0.033,0.006l-0.034,0.002l-0.034,-0.002l-0.033,-0.006l-0.032,-0.009l-0.031,-0.013l-0.03,-0.016l-0.027,-0.02l-0.025,-0.022l-0.023,-0.026l-0.019,-0.027l-5,-8l-0.016,-0.03l-0.013,-0.031l-0.009,-0.032l-0.006,-0.033l-0.002,-0.034l0.002,-0.033l0.006,-0.033l0.009,-0.033l0.013,-0.031l0.016,-0.029l0.02,-0.027l0.022,-0.025l0.025,-0.023l0.028,-0.019l0.029,-0.016l0.031,-0.013l0.032,-0.01l0.034,-0.005l0.033,-0.002l10,0l0.034,0.002Zm-10.034,0.298l5,8l5,-8l-10,0Z" style="fill:#e02115;"/></g></g></svg>