<?xml version="1.0" standalone="no"?>
<!DOCTYPE svg PUBLIC "-//W3C//DTD SVG 20010904//EN"
 "http://www.w3.org/TR/2001/REC-SVG-20010904/DTD/svg10.dtd">
<svg version="1.0" xmlns="http://www.w3.org/2000/svg"
 width="1600.000000pt" height="1067.000000pt" viewBox="0 0 1600.000000 1067.000000"
 preserveAspectRatio="xMidYMid meet">

<g transform="translate(0.000000,1067.000000) scale(0.100000,-0.100000)"
fill="#000000" stroke="none">
<path d="M970 6550 c0 -1079 2 -1128 46 -1348 135 -678 620 -1317 1347 -1779
146 -92 376 -211 469 -242 66 -22 69 -22 120 -5 136 44 386 178 588 315 645
436 1085 1028 1233 1654 56 236 57 256 57 1391 l0 1044 -1930 0 -1930 0 0
-1030z m538 758 l62 -22 -2 -230 -3 -229 -75 -23 c-41 -13 -108 -24 -150 -26
l-75 -3 -3 242 -2 241 67 36 c81 42 99 43 181 14z m322 -15 l70 -37 -2 -240
-3 -241 -70 2 c-38 2 -107 13 -152 25 l-83 23 0 231 0 232 58 20 c81 29 102
27 182 -15z m794 16 l26 -20 26 20 c15 12 41 21 60 21 27 0 36 -6 49 -30 13
-26 18 -28 41 -20 14 6 31 10 39 10 21 0 45 -29 45 -55 0 -22 3 -23 35 -18 50
8 85 -17 85 -62 0 -30 3 -35 24 -35 44 0 56 -10 56 -46 0 -28 5 -36 26 -44 23
-9 25 -14 20 -46 -6 -30 -3 -38 18 -55 17 -13 26 -30 26 -47 0 -25 -8 -19 -82
58 -45 47 -116 120 -157 163 -90 93 -162 132 -268 147 -81 11 -183 1 -255 -26
-24 -8 -50 -16 -58 -17 -26 -3 -23 38 5 72 29 33 57 39 100 19 22 -10 28 -9
41 10 19 28 63 29 98 1z m1530 0 l56 -22 0 -231 0 -232 -82 -22 c-46 -12 -113
-25 -150 -28 l-68 -6 1 248 0 249 62 32 c74 38 107 40 181 12z m316 -15 l70
-36 -2 -241 -3 -242 -70 2 c-38 2 -105 13 -147 25 l-78 22 0 232 0 233 53 20
c73 28 97 26 177 -15z m-3230 -299 l0 -265 143 0 c130 0 144 -2 160 -20 9 -11
25 -20 35 -20 11 0 27 9 37 20 16 18 31 20 162 20 l143 0 0 265 0 265 30 0
c26 0 30 -3 30 -29 0 -15 9 -40 20 -54 25 -31 25 -33 0 -64 -18 -23 -20 -41
-20 -153 0 -114 2 -129 20 -145 11 -10 20 -25 20 -34 0 -9 -9 -24 -20 -34 -12
-10 -20 -29 -20 -47 l0 -30 -405 0 -405 0 0 31 c0 17 -9 42 -20 57 l-20 25 20
22 c18 19 20 35 20 154 0 118 -2 136 -20 159 l-20 25 20 22 c13 13 20 35 20
58 0 36 1 37 35 37 l35 0 0 -265z m2640 0 l0 -265 143 0 c131 0 146 -2 162
-20 10 -11 26 -20 37 -20 10 0 26 9 35 20 16 18 30 20 160 20 l143 0 0 265 0
265 35 0 c34 0 35 -1 35 -37 0 -23 7 -45 20 -58 l20 -22 -20 -25 c-18 -23 -20
-41 -20 -159 0 -122 2 -134 22 -156 l21 -23 -21 -23 c-13 -14 -22 -36 -22 -55
l0 -32 -405 0 -405 0 0 30 c0 18 -8 37 -20 47 -11 10 -20 25 -20 34 0 9 9 24
20 34 18 16 20 31 20 145 0 112 -2 130 -20 153 -11 14 -20 29 -20 35 0 5 9 17
20 27 12 11 20 31 20 52 0 30 3 33 30 33 l30 0 0 -265z m-1525 173 c52 -113
53 -129 11 -176 -20 -22 -36 -42 -36 -46 0 -15 28 -3 69 29 69 55 112 45 171
-39 l30 -44 -55 -38 c-60 -41 -64 -56 -19 -64 39 -8 34 -33 -18 -87 -52 -54
-144 -102 -206 -110 -43 -5 -53 -2 -73 18 l-24 24 57 6 c81 9 180 70 154 96
-3 4 -16 -3 -29 -14 -53 -49 -147 -74 -200 -54 -39 15 -43 36 -13 75 33 44 33
76 0 111 -22 24 -24 33 -18 69 8 51 47 157 76 205 40 69 71 111 80 111 5 0 24
-33 43 -72z m449 24 c70 -33 119 -78 281 -256 117 -130 218 -210 283 -226 97
-23 172 21 172 102 0 80 -78 114 -140 61 -26 -21 -33 -24 -41 -12 -32 51 17
134 91 152 23 6 27 14 37 73 14 81 47 121 108 131 35 6 38 4 31 -13 -28 -72
-28 -119 -1 -233 40 -166 23 -250 -62 -320 -65 -54 -135 -74 -233 -68 -109 7
-169 28 -383 137 -200 101 -262 119 -344 100 -29 -7 -56 -11 -59 -8 -3 3 15
21 40 39 25 18 46 37 46 43 -1 6 -14 27 -30 46 -37 42 -37 55 -4 77 25 16 28
16 68 -7 32 -17 51 -21 72 -16 92 23 108 18 122 -38 7 -26 12 -31 36 -28 40 5
74 -21 78 -60 2 -28 7 -33 26 -31 38 5 59 -13 66 -55 5 -32 12 -42 36 -52 18
-7 33 -22 36 -36 7 -27 24 -33 24 -8 0 26 -20 55 -46 64 -16 6 -24 17 -24 33
0 34 -37 77 -65 77 -18 0 -26 8 -35 34 -11 35 -43 56 -85 56 -18 0 -25 6 -25
18 0 20 -34 55 -64 66 -10 3 -38 -1 -62 -10 -41 -16 -44 -15 -77 5 -44 27 -75
27 -104 -1 -20 -19 -27 -20 -43 -10 -11 7 -40 12 -65 12 -41 0 -45 2 -45 25 0
14 -7 42 -15 62 -21 50 -19 62 13 75 69 28 131 37 223 34 83 -2 106 -7 163
-34z m1974 -1207 c4 -519 -13 -696 -93 -959 -41 -136 -109 -301 -124 -301 -10
0 -151 134 -1146 1095 -254 245 -473 456 -488 469 l-27 24 -62 -59 c-35 -32
-373 -358 -753 -724 -749 -723 -833 -804 -845 -808 -11 -4 -65 122 -109 255
-45 139 -87 344 -101 498 -11 122 -14 878 -3 888 3 4 848 6 1877 5 l1871 -3 3
-380z m-1733 -91 c65 -32 128 -96 158 -162 31 -68 31 -198 -1 -267 -29 -63
-92 -129 -157 -163 -44 -24 -61 -27 -145 -27 -83 0 -101 3 -145 27 -183 96
-239 325 -120 490 94 129 267 172 410 102z m-898 -824 c170 -84 233 -284 141
-451 -64 -118 -169 -175 -307 -167 -126 8 -232 81 -284 196 -32 71 -30 189 5
263 80 174 273 243 445 159z m1800 0 c71 -35 115 -82 152 -160 35 -74 37 -191
4 -262 -29 -63 -96 -134 -158 -166 -44 -23 -62 -27 -145 -27 -79 0 -103 4
-142 23 -62 31 -121 89 -155 154 -24 46 -27 65 -28 143 0 71 4 100 21 136 80
172 280 243 451 159z m-512 -603 c289 -307 525 -562 525 -566 0 -23 -309 -272
-476 -383 -209 -139 -520 -298 -583 -298 -33 0 -195 70 -326 142 -218 119
-486 310 -689 492 l-50 44 29 33 c15 19 139 151 274 294 135 144 361 383 501
533 140 149 258 271 262 269 4 -1 244 -253 533 -560z"/>
<path d="M2277 6863 c-4 -3 -7 -24 -7 -45 0 -44 14 -49 61 -21 33 20 38 48 10
63 -22 11 -54 13 -64 3z"/>
<path d="M5340 7486 l0 -56 52 0 c178 0 293 -106 330 -303 18 -98 19 -2622 1
-2707 -30 -144 -94 -243 -180 -282 -23 -10 -78 -23 -122 -30 l-81 -11 0 -49 0
-48 635 0 635 0 0 48 0 49 -86 12 c-169 24 -239 86 -290 256 -16 54 -18 123
-21 674 l-4 614 68 -7 c197 -20 285 -25 458 -26 263 0 426 20 613 76 227 68
411 194 516 353 98 149 130 266 129 481 0 139 -3 164 -27 244 -48 159 -118
278 -231 392 -173 174 -410 287 -725 345 -122 23 -143 23 -897 27 l-773 3 0
-55z m1560 -110 c345 -96 557 -363 600 -757 19 -175 -13 -353 -88 -489 -21
-38 -68 -98 -116 -146 -134 -134 -298 -202 -548 -225 -144 -14 -339 -1 -457
31 l-81 22 0 795 0 795 313 -5 c260 -3 323 -7 377 -21z"/>
<path d="M8640 6244 c-14 -2 -56 -9 -95 -15 -363 -59 -692 -347 -828 -724 -52
-147 -70 -257 -70 -435 0 -186 16 -278 76 -438 93 -248 299 -467 554 -587 207
-99 497 -138 743 -100 249 38 437 147 631 367 l69 78 0 81 0 80 -137 -138
c-238 -240 -369 -306 -613 -307 -132 0 -225 21 -338 78 -95 48 -145 84 -219
157 -202 198 -311 483 -330 856 l-6 133 804 2 804 3 3 35 c6 56 -17 186 -47
270 -39 110 -102 211 -189 302 -179 187 -417 293 -677 303 -60 2 -121 2 -135
-1z m165 -139 c226 -48 402 -224 450 -452 8 -37 15 -101 15 -140 l0 -73 -596
0 -596 0 7 58 c34 288 174 499 383 581 103 41 223 50 337 26z"/>
<path d="M10080 6214 c-173 -18 -321 -33 -327 -33 -9 -1 -13 -18 -13 -50 0
-56 7 -61 101 -61 123 0 221 -57 250 -145 10 -31 14 -196 17 -745 4 -866 -2
-936 -77 -1011 -43 -43 -81 -55 -203 -65 l-88 -7 0 -48 0 -49 580 0 580 0 0
48 0 49 -101 11 c-154 16 -220 59 -249 161 -21 72 -29 287 -30 796 l0 520 68
85 c231 286 452 392 689 332 190 -48 309 -171 348 -361 13 -62 15 -170 13
-720 l-3 -647 -26 -49 c-37 -72 -100 -103 -242 -117 l-107 -11 0 -48 0 -49
1155 0 1155 0 0 49 0 49 -72 7 c-166 15 -239 59 -274 165 -17 50 -19 109 -22
688 l-3 634 38 46 c240 298 434 408 662 375 202 -30 347 -157 396 -348 23 -91
23 -1349 -1 -1418 -29 -87 -109 -128 -276 -142 l-78 -7 0 -49 0 -49 580 0 580
0 0 49 0 49 -72 7 c-115 10 -173 30 -218 75 -74 74 -73 62 -80 805 -7 735 -4
703 -80 860 -91 189 -257 323 -471 381 -87 24 -279 24 -373 1 -162 -41 -330
-143 -496 -304 -58 -57 -106 -103 -107 -103 -2 0 -3 97 -3 215 l0 215 -46 0
c-41 0 -594 -52 -691 -65 l-43 -6 0 -49 c0 -57 -3 -56 123 -64 137 -8 204 -58
227 -170 7 -37 10 -290 8 -822 -4 -857 -2 -838 -72 -907 -49 -49 -106 -62
-271 -61 -176 0 -240 17 -301 77 -23 23 -48 60 -55 82 -10 30 -14 197 -19 695
-6 632 -7 658 -28 735 -125 458 -602 677 -1048 480 -100 -44 -225 -135 -340
-247 -61 -59 -114 -108 -117 -108 -4 0 -7 97 -7 215 l0 215 -62 -1 c-35 -1
-205 -16 -378 -35z"/>
<path d="M10035 3681 c-63 -15 -112 -60 -140 -127 -12 -28 -19 -34 -44 -34
-21 0 -31 -5 -31 -15 0 -10 10 -15 30 -15 26 0 30 -3 25 -22 -3 -13 -25 -121
-49 -240 -38 -194 -41 -218 -26 -218 20 0 49 88 105 322 l38 157 50 3 c70 4
76 28 8 28 -28 0 -51 4 -51 8 0 5 7 30 16 55 25 74 76 97 126 57 28 -22 38
-18 38 16 0 31 -33 40 -95 25z"/>
<path d="M5340 3650 c0 -5 9 -10 20 -10 32 0 40 -39 40 -203 0 -125 3 -158 18
-187 47 -94 204 -118 292 -44 57 48 63 73 68 253 l4 164 29 11 c49 18 33 26
-51 26 -47 0 -80 -4 -80 -10 0 -5 6 -10 14 -10 8 0 22 -7 30 -16 13 -13 16
-42 16 -162 0 -168 -14 -218 -69 -246 -48 -25 -124 -21 -159 9 -41 34 -52 88
-52 252 0 144 5 163 42 163 10 0 18 5 18 10 0 6 -37 10 -90 10 -53 0 -90 -4
-90 -10z"/>
<path d="M10350 3651 c0 -5 12 -11 28 -13 l27 -3 3 -209 c3 -217 -1 -236 -39
-236 -11 0 -19 -4 -19 -10 0 -6 38 -10 95 -10 93 0 125 12 65 24 l-30 6 0 221
0 222 51 -5 c74 -7 103 -39 103 -113 0 -70 -24 -106 -82 -119 -45 -11 -57 -26
-19 -26 122 0 208 111 160 207 -30 60 -67 73 -215 73 -73 0 -128 -4 -128 -9z"/>
<path d="M7944 3550 c-43 -14 -68 -45 -67 -85 1 -44 3 -46 84 -110 73 -59 89
-89 70 -131 -26 -57 -118 -47 -139 15 -15 43 -22 39 -22 -13 0 -52 12 -59 98
-59 60 0 98 21 120 67 20 40 0 88 -55 133 -85 71 -103 91 -103 117 0 16 9 32
26 42 34 23 74 9 94 -31 l15 -30 3 39 c2 21 2 40 -1 42 -9 10 -95 12 -123 4z"/>
<path d="M12240 3549 c-42 -17 -70 -50 -70 -81 0 -43 14 -62 79 -108 69 -49
94 -89 79 -130 -22 -63 -106 -59 -139 7 -19 38 -29 33 -29 -13 0 -42 23 -55
94 -56 87 -1 136 36 136 102 0 41 -21 71 -86 120 -71 54 -90 83 -76 115 15 33
55 42 88 20 15 -9 29 -26 31 -36 3 -10 9 -16 14 -13 12 7 12 61 0 68 -19 12
-97 15 -121 5z"/>
<path d="M13734 3488 c-88 -234 -108 -280 -125 -291 -31 -19 -22 -27 31 -27
53 0 60 5 34 25 -15 11 -15 16 -2 56 l15 44 66 3 c65 3 67 2 78 -25 21 -55 23
-83 5 -83 -9 0 -16 -4 -16 -10 0 -6 27 -10 60 -10 62 0 71 5 45 24 -11 8 -135
343 -135 364 0 1 -6 2 -14 2 -8 0 -25 -30 -42 -72z m51 -70 c9 -35 20 -71 22
-80 5 -16 -2 -18 -51 -18 -31 0 -56 3 -56 6 0 16 54 154 60 154 4 0 15 -28 25
-62z"/>
<path d="M14917 3553 c-3 -5 -28 -69 -56 -143 -69 -187 -80 -210 -96 -217 -30
-11 -14 -23 30 -23 25 0 45 5 45 10 0 6 -4 10 -10 10 -14 0 -12 35 4 75 15 35
15 35 80 35 l64 0 16 -47 c15 -43 15 -49 1 -59 -26 -19 -17 -24 45 -24 33 0
60 2 60 5 0 3 -8 13 -18 23 -10 10 -33 61 -51 113 -18 52 -44 127 -59 168 -25
69 -43 93 -55 74z m30 -156 c12 -39 23 -73 23 -74 0 -2 -27 -3 -60 -3 l-59 0
25 68 c14 37 27 73 30 81 7 22 16 7 41 -72z"/>
<path d="M5893 3544 c4 -4 17 -12 29 -18 22 -11 23 -17 26 -169 1 -86 -1 -157
-6 -157 -4 0 -17 -7 -28 -15 -17 -13 -13 -14 49 -15 38 0 67 4 67 10 0 6 -9
10 -20 10 -13 0 -24 10 -30 26 -13 34 -13 257 0 252 5 -1 65 -68 132 -148 68
-79 128 -143 133 -142 6 1 11 69 13 172 l2 171 25 9 c40 15 29 20 -47 20 -43
0 -68 -4 -62 -9 5 -5 18 -11 29 -13 10 -2 22 -14 26 -28 9 -31 11 -224 3 -233
-3 -3 -60 59 -126 139 l-119 144 -51 0 c-28 0 -48 -3 -45 -6z"/>
<path d="M6420 3540 c0 -5 9 -10 20 -10 19 0 20 -7 20 -170 0 -163 -1 -170
-20 -170 -11 0 -20 -4 -20 -10 0 -6 30 -10 70 -10 40 0 70 4 70 10 0 6 -9 10
-19 10 -28 0 -31 18 -31 170 0 145 4 170 25 170 8 0 17 5 20 10 4 6 -20 10
-64 10 -41 0 -71 -4 -71 -10z"/>
<path d="M6650 3545 c0 -2 10 -15 23 -27 13 -13 38 -64 55 -113 18 -50 44
-123 58 -162 14 -40 32 -73 39 -73 7 0 45 77 85 174 45 110 80 180 93 190 21
14 18 15 -41 15 -40 1 -61 -3 -57 -9 3 -5 12 -10 20 -10 8 0 16 -4 20 -9 6
-10 -94 -271 -105 -271 -3 0 -25 59 -49 132 l-43 131 23 18 c24 18 24 19 -48
19 -40 0 -73 -2 -73 -5z"/>
<path d="M7100 3545 c0 -3 11 -10 25 -15 l25 -10 0 -161 c0 -152 -1 -161 -20
-166 -52 -14 -8 -23 109 -23 l129 0 6 31 c3 17 6 41 6 53 -1 18 -3 17 -16 -9
-23 -44 -42 -55 -96 -55 -59 0 -68 14 -68 104 l0 66 33 0 c37 0 49 -7 65 -35
9 -17 11 -10 12 40 0 57 -1 58 -16 37 -11 -16 -25 -22 -55 -22 l-39 0 0 76 0
75 53 -3 c48 -3 53 -6 69 -36 19 -39 27 -31 21 21 l-5 37 -119 0 c-65 0 -119
-2 -119 -5z"/>
<path d="M7475 3540 c3 -5 12 -10 20 -10 21 0 25 -25 25 -170 0 -152 -3 -170
-31 -170 -10 0 -19 -4 -19 -10 0 -6 30 -10 70 -10 40 0 70 4 70 10 0 6 -9 10
-20 10 -18 0 -20 7 -20 75 0 73 1 75 24 75 20 0 32 -13 62 -67 50 -92 61 -103
102 -103 l36 0 -26 28 c-14 15 -44 53 -66 85 l-40 57 34 34 c27 27 34 42 34
74 0 54 -7 70 -41 87 -33 18 -224 22 -214 5z m186 -31 c18 -18 20 -30 17 -70
-6 -62 -21 -79 -69 -79 l-39 0 0 85 0 85 35 0 c22 0 43 -8 56 -21z"/>
<path d="M8190 3545 c0 -3 11 -10 25 -15 l25 -10 0 -160 0 -160 -27 -12 c-28
-12 -28 -12 15 -16 23 -2 59 -2 80 0 l37 4 -27 12 -28 12 0 160 0 160 25 10
c14 5 25 12 25 15 0 3 -34 5 -75 5 -41 0 -75 -2 -75 -5z"/>
<path d="M8426 3528 c-3 -13 -6 -32 -6 -43 0 -17 4 -15 26 13 21 26 32 32 65
32 l39 0 0 -170 c0 -163 -1 -170 -20 -170 -11 0 -20 -4 -20 -10 0 -6 30 -10
70 -10 40 0 70 4 70 10 0 6 -9 10 -20 10 -19 0 -20 7 -20 170 l0 170 39 0 c33
0 44 -6 65 -32 22 -28 26 -30 26 -13 0 11 -3 30 -6 43 -6 22 -9 22 -154 22
-145 0 -148 0 -154 -22z"/>
<path d="M8833 3526 c14 -13 46 -65 71 -115 39 -78 46 -99 46 -151 0 -55 -2
-61 -25 -70 -40 -15 -30 -20 45 -20 67 0 93 12 50 23 -17 4 -20 14 -20 70 0
61 4 72 55 163 30 53 63 103 73 110 15 12 9 13 -43 13 -60 1 -60 1 -36 -18
l23 -18 -30 -59 c-55 -106 -52 -106 -97 -15 -38 79 -38 81 -19 96 17 13 13 14
-50 15 l-69 0 26 -24z"/>
<path d="M10800 3545 c0 -3 11 -10 25 -15 l25 -10 0 -160 0 -160 -27 -13 c-24
-10 -10 -12 106 -15 73 -1 135 -1 137 1 2 2 6 26 9 53 l6 49 -17 -30 c-24 -44
-43 -55 -96 -55 -59 0 -68 14 -68 104 l0 66 33 0 c37 0 49 -7 65 -35 9 -17 11
-10 11 40 0 57 -1 59 -16 38 -11 -17 -25 -23 -54 -23 l-39 0 0 76 0 75 53 -3
c48 -3 53 -5 69 -38 l18 -35 0 48 0 47 -120 0 c-66 0 -120 -2 -120 -5z"/>
<path d="M11198 3523 l33 -28 -3 -145 c-3 -139 -4 -145 -25 -155 -39 -17 -25
-25 42 -25 37 0 65 4 65 10 0 6 -9 10 -20 10 -33 0 -41 33 -38 165 l3 126 130
-156 c71 -85 133 -155 137 -155 5 0 8 72 8 161 0 160 7 199 35 199 8 0 15 5
15 10 0 6 -29 10 -66 10 -41 0 -63 -4 -59 -10 3 -5 12 -10 19 -10 30 0 37 -28
34 -149 l-3 -121 -119 145 -120 145 -50 0 -50 0 32 -27z"/>
<path d="M11653 3544 c4 -4 17 -12 29 -18 22 -11 23 -17 26 -169 l3 -157 -28
-12 -28 -12 38 -4 c20 -2 54 -2 75 0 36 4 33 8 -13 23 -12 4 -15 28 -15 140 0
74 2 135 4 135 2 0 60 -67 130 -150 70 -82 131 -150 136 -150 6 0 10 68 10
175 l0 175 25 10 c40 15 30 20 -40 20 -37 0 -65 -4 -65 -10 0 -5 9 -10 20 -10
13 0 24 -10 30 -26 13 -32 13 -234 1 -234 -5 0 -62 63 -125 140 l-116 140 -52
0 c-28 0 -48 -3 -45 -6z"/>
<path d="M12480 3541 c0 -5 8 -12 18 -15 10 -3 40 -52 70 -111 39 -79 52 -116
52 -149 0 -57 -8 -76 -31 -76 -10 0 -19 -4 -19 -10 0 -6 30 -10 70 -10 67 0
93 12 50 23 -17 4 -20 14 -20 71 0 61 4 74 51 158 28 51 61 101 72 110 21 17
20 18 -38 18 l-60 0 24 -19 24 -18 -42 -77 c-23 -42 -45 -76 -47 -76 -6 0 -74
144 -74 155 0 4 8 14 18 21 15 12 8 13 -50 14 -38 0 -68 -4 -68 -9z"/>
<path d="M12905 3540 c3 -5 13 -10 21 -10 12 0 14 -29 14 -170 0 -163 -1 -170
-20 -170 -11 0 -20 -5 -20 -10 0 -7 46 -10 132 -8 l132 3 8 44 c4 25 6 46 4
48 -1 2 -14 -14 -27 -35 -20 -31 -31 -38 -63 -40 -22 -2 -50 -1 -63 2 -23 6
-23 7 -23 171 0 158 1 165 20 165 11 0 20 5 20 10 0 6 -30 10 -71 10 -44 0
-68 -4 -64 -10z"/>
<path d="M13240 3530 c18 -14 41 -64 86 -187 36 -100 66 -169 75 -171 10 -2
36 51 84 169 49 119 77 176 95 190 l25 18 -65 0 c-62 0 -64 -1 -42 -16 12 -8
22 -21 22 -27 0 -16 -89 -238 -100 -249 -4 -5 -28 50 -51 123 l-44 131 25 19
25 20 -80 0 -80 0 25 -20z"/>
<path d="M14013 3544 c4 -4 17 -12 29 -18 22 -11 23 -17 26 -170 2 -151 2
-158 -18 -163 -42 -11 -18 -23 46 -23 41 0 63 4 59 10 -3 6 -12 10 -19 10 -31
0 -37 28 -34 156 l3 128 128 -152 c70 -84 132 -152 138 -152 5 0 9 69 9 168 0
92 4 172 8 178 4 6 16 14 27 19 17 8 14 10 -18 13 -20 2 -52 2 -70 0 l-32 -4
27 -12 c34 -14 40 -44 36 -177 l-3 -100 -120 147 -120 147 -54 0 c-30 1 -51
-2 -48 -5z"/>
<path d="M14520 3540 c0 -5 9 -10 20 -10 19 0 20 -7 20 -170 0 -163 -1 -170
-20 -170 -11 0 -20 -4 -20 -10 0 -6 30 -10 70 -10 40 0 70 4 70 10 0 6 -9 10
-20 10 -19 0 -20 7 -20 170 0 163 1 170 20 170 11 0 20 5 20 10 0 6 -30 10
-70 10 -40 0 -70 -4 -70 -10z"/>
<path d="M9505 3506 c-71 -43 -115 -125 -115 -215 0 -63 28 -107 79 -122 110
-33 223 88 225 239 1 60 -1 65 -32 93 -42 38 -99 39 -157 5z m115 -15 c15 -29
12 -130 -5 -188 -36 -121 -125 -159 -155 -67 -23 69 10 194 64 249 31 31 81
34 96 6z"/>
</g>
</svg>
